<svg xmlns="http://www.w3.org/2000/svg" viewBox="0 0 1200 900" width="1200" height="900" font-family="Georgia,'Times New Roman',serif" xmlns:c2pa="http://c2pa.org/manifest"><metadata><c2pa:manifest>AAAWgmp1bWIAAAAeanVtZGMycGEAEQAQgAAAqgA4m3EDYzJwYQAAABZcanVtYgAAAEdqdW1kYzJtYQARABCAAACqADibcQN1cm46YzJwYTowNzg2MDNjOS02ZDljLTQ2ZTYtOTM1NC03YTIwMTI2MmY4NDcAAAADl2p1bWIAAAApanVtZGMyYXMAEQAQgAAAqgA4m3EDYzJwYS5hc3NlcnRpb25zAAAAALxqdW1iAAAARGp1bWRjYm9yABEAEIAAAKoAOJtxE2MycGEuaW5ncmVkaWVudC52MwAAAAAYYzJzaE2vr4mO+DtgMLTgRp1qNF4AAABwY2JvcqNpZGM6Zm9ybWF0bWltYWdlL3N2Zyt4bWxqaW5zdGFuY2VJRHgseG1wOmlpZDowZGNjMWU3NS1iYjY1LTQ5ZmMtOTcxOC1hYTk1NmQ2NzZiNWNscmVsYXRpb25zaGlwaHBhcmVudE9mAAAB4mp1bWIAAABBanVtZGNib3IAEQAQgAAAqgA4m3ETYzJwYS5hY3Rpb25zLnYyAAAAABhjMnNoezn347DB6otP5J26u5hwLgAAAZljYm9yomdhY3Rpb25zgqJmYWN0aW9ua2MycGEub3BlbmVkanBhcmFtZXRlcnOha2luZ3JlZGllbnRzgaJjdXJseC1zZWxmI2p1bWJmPWMycGEuYXNzZXJ0aW9ucy9jMnBhLmluZ3JlZGllbnQudjNkaGFzaFggAZGvQnAcLYW0fIpMb8BivtcZCg06hLizdR9zjHZBD52kZmFjdGlvbngdY29tLmFudGhyb3BpYy5jbGF1ZGUucHJvdmlkZWRqcGFyYW1ldGVyc6F4H2NvbS5hbnRocm9waWMub3JpZ2luLWNvbmZpZGVuY2VndW5rbm93bmtkZXNjcmlwdGlvbnhmQ2xhdWRlIHByb3ZpZGVkIHRoaXMgZmlsZSBhdCB0aGUgcmVxdWVzdCBvZiBhIHVzZXIgYW5kIG1heSBoYXZlIGNyZWF0ZWQgb3IgbW9kaWZpZWQgdGhlIGZpbGUgY29udGVudHMubXNvZnR3YXJlQWdlbnShZG5hbWVmQ2xhdWRlcmFsbEFjdGlvbnNJbmNsdWRlZPUAAADIanVtYgAAAEBqdW1kY2JvcgARABCAAACqADibcRNjMnBhLmhhc2guZGF0YQAAAAAYYzJzaJGdP9SnClmso4WThs39xa4AAACAY2JvcqVjYWxnZnNoYTI1NmNwYWRNAAAAAAAAAAAAAAAAAGRoYXNoWCBCk1AzNt2BwFf57nw9pNZ3z8EYYomklRZzt5g8IuSuXmRuYW1lbmp1bWJmIG1hbmlmZXN0amV4Y2x1c2lvbnOBomVzdGFydBjGZmxlbmd0aBkeBAAAAj5qdW1iAAAAJ2p1bWRjMmNsABEAEIAAAKoAOJtxA2MycGEuY2xhaW0udjIAAAACD2Nib3KlY2FsZ2ZzaGEyNTZpc2lnbmF0dXJleE1zZWxmI2p1bWJmPS9jMnBhL3VybjpjMnBhOjA3ODYwM2M5LTZkOWMtNDZlNi05MzU0LTdhMjAxMjYyZjg0Ny9jMnBhLnNpZ25hdHVyZWppbnN0YW5jZUlEeCx4bXA6aWlkOjdhOWU2Yzk5LTE3ZDYtNDIyMi1hYjMzLTEzYThjZjU0MDcwNXJjcmVhdGVkX2Fzc2VydGlvbnODomN1cmx4LXNlbGYjanVtYmY9YzJwYS5hc3NlcnRpb25zL2MycGEuaW5ncmVkaWVudC52M2RoYXNoWCABka9CcBwthbR8ikxvwGK+1xkKDTqEuLN1H3OMdkEPnaJjdXJseCpzZWxmI2p1bWJmPWMycGEuYXNzZXJ0aW9ucy9jMnBhLmFjdGlvbnMudjJkaGFzaFggwiTr7Mv1GMJ77MgILsi8/W/c/BWu87bbRLpfEJr6X/yiY3VybHgpc2VsZiNqdW1iZj1jMnBhLmFzc2VydGlvbnMvYzJwYS5oYXNoLmRhdGFkaGFzaFggQQCBcc4Wc+qe20LHXe5iXb6tdjbR/Efq2+b2IPyISnJ0Y2xhaW1fZ2VuZXJhdG9yX2luZm+jZG5hbWVvQW50aHJvcGljIEZpbGVzZ3ZlcnNpb25lMS4wLjBrc3BlY1ZlcnNpb25lMi40LjAAABA4anVtYgAAAChqdW1kYzJjcwARABCAAACqADibcQNjMnBhLnNpZ25hdHVyZQAAABAIY2JvctKEWQISogEmGCFZAgowggIGMIIBjaADAgECAhRA5aAK7sI50L64g/oGQgU9Z1UTADAKBggqhkjOPQQDAzBJMRcwFQYDVQQKEw5BbnRocm9waWMsIFBCQzEuMCwGA1UEAxMlQW50aHJvcGljIENvbnRlbnQgQ3JlZGVudGlhbHMgUm9vdCBDQTAeFw0yNjA4MDcxODQzNTZaFw0yODA4MDYxOTQzNTZaMEQxFzAVBgNVBAoTDkFudGhyb3BpYywgUEJDMSkwJwYDVQQDEyBBbnRocm9waWMgQ2xhdWRlIENvbnRlbnQgU2lnbmluZzBZMBMGByqGSM49AgEGCCqGSM49AwEHA0IABJh6CmvLUBgFFNU0vUKlOVtE6djd17L5SuwX0LemFisBM3dkd/3cyjxFA3Qo5S46fX0/ihY0VZ7mfb9KF703t5OjWDBWMA4GA1UdDwEB/wQEAwIHgDAVBgNVHSUEDjAMBgorBgEEAYPoXgIBMAwGA1UdEwEB/wQCMAAwHwYDVR0jBBgwFoAUzlHiBIFOZFsj+OPEz5o+nMHXXMIwCgYIKoZIzj0EAwMDZwAwZAIwMXMdFJ4BetLLVY7ORuE9noqbbAZOZn/aArXyTwFAZfKrPzxF2vPoJNf1+UCdg1XGAjBwX1zd9WGqYkqmL5SFqw1QySjr1zJfpJM9+1rdDwSPLMOPOjKuiXjoU/pUUeG9RwmhY3BhZFkNngAAAAAAAAAAAAAAAAAAAAAAAAAAAAAAAAAAAAAAAAAAAAAAAAAAAAAAAAAAAAAAAAAAAAAAAAAAAAAAAAAAAAAAAAAAAAAAAAAAAAAAAAAAAAAAAAAAAAAAAAAAAAAAAAAAAAAAAAAAAAAAAAAAAAAAAAAAAAAAAAAAAAAAAAAAAAAAAAAAAAAAAAAAAAAAAAAAAAAAAAAAAAAAAAAAAAAAAAAAAAAAAAAAAAAAAAAAAAAAAAAAAAAAAAAAAAAAAAAAAAAAAAAAAAAAAAAAAAAAAAAAAAAAAAAAAAAAAAAAAAAAAAAAAAAAAAAAAAAAAAAAAAAAAAAAAAAAAAAAAAAAAAAAAAAAAAAAAAAAAAAAAAAAAAAAAAAAAAAAAAAAAAAAAAAAAAAAAAAAAAAAAAAAAAAAAAAAAAAAAAAAAAAAAAAAAAAAAAAAAAAAAAAAAAAAAAAAAAAAAAAAAAAAAAAAAAAAAAAAAAAAAAAAAAAAAAAAAAAAAAAAAAAAAAAAAAAAAAAAAAAAAAAAAAAAAAAAAAAAAAAAAAAAAAAAAAAAAAAAAAAAAAAAAAAAAAAAAAAAAAAAAAAAAAAAAAAAAAAAAAAAAAAAAAAAAAAAAAAAAAAAAAAAAAAAAAAAAAAAAAAAAAAAAAAAAAAAAAAAAAAAAAAAAAAAAAAAAAAAAAAAAAAAAAAAAAAAAAAAAAAAAAAAAAAAAAAAAAAAAAAAAAAAAAAAAAAAAAAAAAAAAAAAAAAAAAAAAAAAAAAAAAAAAAAAAAAAAAAAAAAAAAAAAAAAAAAAAAAAAAAAAAAAAAAAAAAAAAAAAAAAAAAAAAAAAAAAAAAAAAAAAAAAAAAAAAAAAAAAAAAAAAAAAAAAAAAAAAAAAAAAAAAAAAAAAAAAAAAAAAAAAAAAAAAAAAAAAAAAAAAAAAAAAAAAAAAAAAAAAAAAAAAAAAAAAAAAAAAAAAAAAAAAAAAAAAAAAAAAAAAAAAAAAAAAAAAAAAAAAAAAAAAAAAAAAAAAAAAAAAAAAAAAAAAAAAAAAAAAAAAAAAAAAAAAAAAAAAAAAAAAAAAAAAAAAAAAAAAAAAAAAAAAAAAAAAAAAAAAAAAAAAAAAAAAAAAAAAAAAAAAAAAAAAAAAAAAAAAAAAAAAAAAAAAAAAAAAAAAAAAAAAAAAAAAAAAAAAAAAAAAAAAAAAAAAAAAAAAAAAAAAAAAAAAAAAAAAAAAAAAAAAAAAAAAAAAAAAAAAAAAAAAAAAAAAAAAAAAAAAAAAAAAAAAAAAAAAAAAAAAAAAAAAAAAAAAAAAAAAAAAAAAAAAAAAAAAAAAAAAAAAAAAAAAAAAAAAAAAAAAAAAAAAAAAAAAAAAAAAAAAAAAAAAAAAAAAAAAAAAAAAAAAAAAAAAAAAAAAAAAAAAAAAAAAAAAAAAAAAAAAAAAAAAAAAAAAAAAAAAAAAAAAAAAAAAAAAAAAAAAAAAAAAAAAAAAAAAAAAAAAAAAAAAAAAAAAAAAAAAAAAAAAAAAAAAAAAAAAAAAAAAAAAAAAAAAAAAAAAAAAAAAAAAAAAAAAAAAAAAAAAAAAAAAAAAAAAAAAAAAAAAAAAAAAAAAAAAAAAAAAAAAAAAAAAAAAAAAAAAAAAAAAAAAAAAAAAAAAAAAAAAAAAAAAAAAAAAAAAAAAAAAAAAAAAAAAAAAAAAAAAAAAAAAAAAAAAAAAAAAAAAAAAAAAAAAAAAAAAAAAAAAAAAAAAAAAAAAAAAAAAAAAAAAAAAAAAAAAAAAAAAAAAAAAAAAAAAAAAAAAAAAAAAAAAAAAAAAAAAAAAAAAAAAAAAAAAAAAAAAAAAAAAAAAAAAAAAAAAAAAAAAAAAAAAAAAAAAAAAAAAAAAAAAAAAAAAAAAAAAAAAAAAAAAAAAAAAAAAAAAAAAAAAAAAAAAAAAAAAAAAAAAAAAAAAAAAAAAAAAAAAAAAAAAAAAAAAAAAAAAAAAAAAAAAAAAAAAAAAAAAAAAAAAAAAAAAAAAAAAAAAAAAAAAAAAAAAAAAAAAAAAAAAAAAAAAAAAAAAAAAAAAAAAAAAAAAAAAAAAAAAAAAAAAAAAAAAAAAAAAAAAAAAAAAAAAAAAAAAAAAAAAAAAAAAAAAAAAAAAAAAAAAAAAAAAAAAAAAAAAAAAAAAAAAAAAAAAAAAAAAAAAAAAAAAAAAAAAAAAAAAAAAAAAAAAAAAAAAAAAAAAAAAAAAAAAAAAAAAAAAAAAAAAAAAAAAAAAAAAAAAAAAAAAAAAAAAAAAAAAAAAAAAAAAAAAAAAAAAAAAAAAAAAAAAAAAAAAAAAAAAAAAAAAAAAAAAAAAAAAAAAAAAAAAAAAAAAAAAAAAAAAAAAAAAAAAAAAAAAAAAAAAAAAAAAAAAAAAAAAAAAAAAAAAAAAAAAAAAAAAAAAAAAAAAAAAAAAAAAAAAAAAAAAAAAAAAAAAAAAAAAAAAAAAAAAAAAAAAAAAAAAAAAAAAAAAAAAAAAAAAAAAAAAAAAAAAAAAAAAAAAAAAAAAAAAAAAAAAAAAAAAAAAAAAAAAAAAAAAAAAAAAAAAAAAAAAAAAAAAAAAAAAAAAAAAAAAAAAAAAAAAAAAAAAAAAAAAAAAAAAAAAAAAAAAAAAAAAAAAAAAAAAAAAAAAAAAAAAAAAAAAAAAAAAAAAAAAAAAAAAAAAAAAAAAAAAAAAAAAAAAAAAAAAAAAAAAAAAAAAAAAAAAAAAAAAAAAAAAAAAAAAAAAAAAAAAAAAAAAAAAAAAAAAAAAAAAAAAAAAAAAAAAAAAAAAAAAAAAAAAAAAAAAAAAAAAAAAAAAAAAAAAAAAAAAAAAAAAAAAAAAAAAAAAAAAAAAAAAAAAAAAAAAAAAAAAAAAAAAAAAAAAAAAAAAAAAAAAAAAAAAAAAAAAAAAAAAAAAAAAAAAAAAAAAAAAAAAAAAAAAAAAAAAAAAAAAAAAAAAAAAAAAAAAAAAAAAAAAAAAAAAAAAAAAAAAAAAAAAAAAAAAAAAAAAAAAAAAAAAAAAAAAAAAAAAAAAAAAAAAAAAAAAAAAAAAAAAAAAAAAAAAAAAAAAAAAAAAAAAAAAAAAAAAAAAAAAAAAAAAAAAAAAAAAAAAAAAAAAAAAAAAAAAAAAAAAAAAAAAAAAAAAAAAAAAAAAAAAAAAAAAAAAAAAAAAAAAAAAAAAAAAAAAAAAAAAAAAAAAAAAAAAAAAAAAAAAAAAAAAAAAAAAAAAAAAAAAAAAAAAAAAAAAAAAAAAAAAAAAAAAAAAAAAAAAAAAAAAAAAAAAAAAAAAAAAAAAAAAAAAAAAAAAAAAAAAAAAAAAAAAAAAAAAAAAAAAAAAAAAAAAAAAAAAAAAAAAAAAAAAAAAAAAAAAAAAAAAAAAAAAAAAAAAAAAAAAAAAAAAAAAAAAAAAAAAAAAAAAAAAAAAAAAAAAAAAAAAAAAAAAAAAAAAAAAAAAAAAAAAAAAAAAAAAAAAAAAAAAAAAAAAAAAAAAAAAAAAAAAAAAAAAAAAAAAAAAAAAAAAAAAAAAAAAAAAAAAAAAAAAAAAAAAAAAAAAAAAAAAAAAAAAAAAAAAAAAAAAAAAAAAAAAAAAAAAAAAAAAAAAAAAAAAAAAAAAAAAAAAAAAAAAAAAAAAAAAAAAAAAAAAAAAAAAAAAAAAAAAAAAAAAAAAAAAAAAAAAAAAAAAAAAAAAAAAAAAAAAAAAAAAAAAAAAAAAAAAAAAAAAAAAAAAAAAAAAAAAAAAAAAAAAAAAAAAAAAAAAAAAAAAAAAAAAAAAAAAAAAAAAAAAAAAAAAAAAAAAAAAAAAAAAAAAAAAAAAAAAAAAAAAAAAAAAAAAAAAAAAAAAAAAAAAAAAAAAAAAAAAAAAAAAAAAAAAAAAAAAAAAAAAAAAAAAAAAAAAAAAAAAAAAAAAAAAAAAAAAAAAAAAAAAAAAAAAAAAAAAAAAAAAAAAAAAAAAAAAAAAAAAAAAAAAAAAAAAAAAAAAAAAAAAAAAAAAAAAAAAAAAAAAAAAAAAAAAAAAAAAAAAAAAAAAAAAAAAAAAAAAAAAAAAAAAAAAAAAAAAAAAAAAAAAAAAAAAAAAAAAAAAAAAAAAAAAAAAAAAAAAAAAAAAAAAAAAAAAAAAAAAAAAAAAAAAAAAAAAAAAAAAAAAAAAAAAAAAAAAAAAAAAAAAAAAAAAAAAAAAAAAAAAAAAAAAAAAAAAAAAAAAAAAAAAAAAAAAAAAAAAAAAAAAAAAAAAAAAAAAAAAAAAAAAAAAAAAAAAAAAAAAAAAAAAAAAAAAAAAAAAAAAAAAAAAAAAAAAAAAAAAAAAAAAAAAAAAAAAAAAAAAAAAAAAAAAAAAAAAAAAAAAAAAAAAAAAAAAAAAAAAAAAAAAAAAAAAAAAAAAAAAAAAAAAAAAAAAAAAAAAAAAAAAAAAAAAAAAAAAAAAAAAAAAAAAAAAAAAAAAAAAAAAAAAAAAAAAAAAAAAAAAAAAAAAAAAAAAAAAAAAAAAAAAAAAAAAAAAAAAAAAAAAAAAAAAAAAAAAAAAAAAAAAAAAAAAAAAAAAAAAAAAAAAAAAAAAAAAAAAAAAAAAAAAAAAAAAAAAAAAAAAAAAAAAAAAAAAAAAAAAAAAAAAAAAAAAAAAAAAAAAAAAAAAAAAAAAAAAAAAAAAAAAAAAAAAAAAAAAAAAAAAPZYQPuamLBt8jCzL4Cd5yOFyr7cdBJrvOSn12eBXuZt5IN5guy4M6fx0ix4vjjlPXOEOGirz+hy9dIsj0nXXXrAZyE=</c2pa:manifest></metadata>
<rect width="1200" height="900" fill="#EFE6D2"></rect>
<path d="M19.9 681.5L83.8 678.5L85.1 551.4L229.0 565.1L255.5 551.9L326.3 596.0L341.0 659.0L347.2 666.4L406.0 648.5L413.6 689.1L418.1 713.3L474.8 691.9L527.4 739.3L529.7 801.2L598.3 803.3L616.3 890.7L628.5 900.3L647.3 878.9L687.4 887.0L699.6 911.3L741.1 909.1L748.9 916.4L779.1 938.5L807.4 944.9L834.2 938.0L854.3 932.0L909.8 910.5L928.8 929.6L904.1 945.7L915.2 1030.6L866.5 970.0L849.7 979.5L853.1 1060.2L837.8 1082.3L811.9 1079.1L808.8 1020.9L736.8 1010.4L697.4 978.1L640.7 949.9L628.0 934.8L630.7 920.3L605.1 908.2L580.3 904.8L459.6 873.3L400.3 847.5L323.3 828.1L293.2 814.3L170.1 758.8L160.1 763.4L106.8 764.7L105.6 742.5L39.5 743.1L27.4 716.9L19.9 681.5ZM1093.1 -93.7L1253.0 0.1L1276.3 49.2L1401.7 118.6L1433.6 134.7L1466.5 152.3L1439.1 210.8L1381.1 183.8L1342.0 208.4L1307.0 203.3L1301.6 210.6L1279.3 240.7L1283.3 275.1L1257.1 326.8L1250.2 340.4L1225.3 331.7L1198.0 327.6L1172.0 329.4L1054.0 398.0L963.1 397.2L857.9 351.4L761.5 307.6L926.8 94.8L918.5 72.6L916.1 43.4L941.6 18.7L973.1 9.8L963.7 -152.0L1014.4 -166.8L1093.1 -93.7ZM1123.9 -503.3L1122.9 -517.0L927.5 -548.1L881.3 -544.5L879.6 -589.8L859.6 -597.3L862.5 -671.8L1073.8 -880.4L1103.8 -896.2L1118.7 -891.8L1144.7 -896.0L1154.8 -885.0L1266.7 -884.9L1274.8 -860.7L1243.9 -845.0L1242.9 -835.4L1230.1 -842.1L1224.0 -828.8L1238.5 -811.5L1259.9 -806.7L1366.8 -730.9L1451.7 -689.9L1616.5 -648.3L1753.5 -636.7L1976.5 -620.8L2031.7 -485.8L2178.9 -408.4L2336.3 -457.1L2581.4 -484.3L2196.0 -284.1L2027.2 -303.0L1878.4 -342.4L1812.1 -359.6L1765.3 -276.6L1796.3 -261.9L1776.8 -225.8L1745.0 -243.2L1734.4 -226.8L1661.8 -261.6L1569.7 -211.7L1563.0 -208.0L1640.0 -169.1L1348.1 -19.4L1294.7 -45.5L1375.2 -236.1L1267.1 -302.6L1144.6 -363.9L1128.1 -502.5L1123.9 -503.3ZM1135.4 -331.4L1131.5 -323.4L1207.8 -284.7L1201.9 -260.5L1233.9 -244.5L1254.1 -273.7L1135.4 -331.4ZM16.1 743.3L-25.6 743.6L-29.2 764.9L-59.7 765.2L-250.7 738.3L-302.5 736.7L-325.3 636.8L-391.9 619.5L-425.7 612.6L-436.4 517.8L-420.9 466.8L-431.2 437.9L-408.3 326.4L-282.5 379.3L-272.9 375.0L-167.9 436.5L-171.6 438.9L-257.2 449.6L-257.5 445.6L-288.2 448.1L-283.2 509.1L-252.5 506.6L-256.9 453.3L-170.4 442.3L-163.9 438.9L-151.4 446.2L-144.1 440.5L-118.9 451.6L-122.9 386.5L-50.7 375.8L-47.8 500.1L-29.6 575.4L5.2 573.9L13.1 681.8L16.1 743.3Z" fill="#5E6552" fill-opacity=".18"></path>
<path d="M129.3 -294.8L127.1 -297.7L122.3 -303.9L121.9 -304.6L114.2 -315.3L110.9 -325.9L92.3 -352.8L74.6 -338.3L80.8 -328.0L47.0 -302.7L60.5 -285.6L93.2 -243.0L115.0 -258.6L102.7 -274.1L129.3 -294.8ZM694.6 453.6L652.1 467.9L636.8 469.2L549.9 350.8L261.3 -26.7L254.8 -43.2L268.4 -45.4L344.7 10.6L436.1 117.1L460.3 148.3L471.0 147.8L513.2 202.7L561.0 256.1L612.4 294.6L657.7 320.7L621.0 359.8L694.6 453.6ZM-37.4 -24.3L-84.4 -25.9L-77.7 52.9L-71.0 133.2L-144.2 136.5L-130.0 306.8L-122.9 386.5L-50.7 375.8L-47.8 500.1L-29.6 575.4L5.2 573.9L13.1 681.8L19.9 681.5L83.8 678.5L85.1 551.4L74.3 336.1L50.7 -29.9L-37.4 -24.3ZM93.2 -243.0L145.0 -175.7L159.2 -185.5L189.3 -208.1L129.3 -294.8L102.7 -274.1L115.0 -258.6L93.2 -243.0ZM-86.3 -312.7L-346.1 -285.4L-350.5 -286.3L-327.5 -338.8L-274.3 -342.9L-276.2 -379.4L-208.6 -386.3L-150.5 -392.3L-152.5 -411.4L-50.9 -422.4L-20.0 -368.3L9.4 -333.0L72.0 -251.0L72.2 -239.3L96.5 -205.1L93.8 -202.9L123.1 -160.7L207.2 -51.6L44.8 -38.0L-38.0 -31.5L-62.6 -34.1L-86.3 -312.7ZM71.5 -31.4L113.5 -10.6L135.4 -11.8L181.0 -14.9L200.8 13.9L238.1 -11.7L214.4 -42.4L71.5 -31.4ZM1410.0 953.6L1444.6 882.7L1424.9 873.6L1448.7 824.8L1468.7 833.5L1485.7 798.7L1474.4 793.6L1528.4 681.6L1473.1 656.0L1334.5 950.1L1355.0 957.5L1365.5 936.2L1410.0 953.6ZM1462.6 654.0L1402.9 623.9L1368.2 699.4L1394.2 711.5L1383.6 734.8L1368.5 728.0L1357.7 750.5L1350.8 747.9L1329.1 799.1L1340.2 803.7L1294.9 907.5L1284.2 932.1L1325.0 946.8L1383.6 822.0L1462.6 654.0ZM934.1 916.2L993.8 1050.3L997.3 1081.6L1133.1 1081.2L1132.9 1135.2L1153.6 1135.9L1153.6 1118.8L1264.3 1119.7L1286.2 1118.1L1284.7 956.9L1322.2 969.1L1319.3 1053.7L1347.6 1055.0L1352.3 980.1L1376.0 988.1L1374.4 1086.2L1398.2 1085.0L1398.8 1057.0L1429.1 1057.7L1432.0 1152.7L1457.7 1147.3L1455.9 1123.9L1480.6 1121.2L1482.5 1146.7L1683.1 1098.3L1704.7 1093.6L1599.5 1058.3L1021.9 864.4L942.5 836.4L896.9 818.1L891.6 820.7L931.6 910.6L958.9 899.1L977.5 895.4L980.0 892.1L987.8 889.1L991.9 889.8L1002.7 885.3L1025.4 892.8L1027.7 895.6L1065.4 907.4L1062.1 920.0L1062.8 978.3L1014.4 998.2L989.7 942.4L1045.3 916.6L1046.9 907.5L1004.2 892.0L999.2 892.2L978.1 900.7L961.4 903.6L934.1 916.2ZM1201.1 567.7L1199.5 556.3L1136.6 529.2L1136.0 566.2L1201.1 567.7ZM1132.9 726.8L1129.2 854.8L1182.4 855.8L1190.1 729.4L1132.9 726.8ZM1082.0 507.8L1081.6 562.6L1128.1 564.0L1129.6 508.7L1082.0 507.8ZM1127.5 582.2L1114.5 582.8L1113.4 643.5L1077.8 644.1L1077.3 696.6L1125.7 697.4L1127.5 582.2ZM1080.8 721.4L1079.8 786.4L1029.3 787.6L1029.7 816.7L1079.6 815.7L1123.0 816.3L1125.3 720.8L1080.8 721.4ZM1355.0 957.5L1400.2 973.6L1410.0 953.6L1365.5 936.2L1355.0 957.5ZM928.8 929.6L904.1 945.7L915.2 1030.6L941.9 1028.3L951.6 1154.8L970.2 1185.4L975.4 1226.6L1005.2 1221.7L986.3 1081.7L980.9 1048.2L928.8 929.6Z" fill="#E2D3B3"></path>
<path d="M1220.4 -285.6L1231.8 -283.1L1244.0 -269.5L1228.3 -258.4L1212.5 -267.0L1220.4 -285.6ZM887.2 1169.4L883.4 1170.9L879.2 1170.7L876.4 1166.1L876.4 1159.3L880.5 1155.4L885.7 1155.8L888.8 1159.3L889.8 1164.3L887.2 1169.4Z" fill="#A8B5AC"></path>
<path d="M-169.0 -46.2L-83.2 -29.7L-39.3 -26.1M221.0 -45.9L244.4 -48.7M244.4 -48.7L269.8 -50.3L348.8 9.5L441.3 115.9L462.3 144.4M-39.3 -26.1L-29.0 -25.6M-29.0 -25.6L162.1 -41.0M1146.2 -320.9L1220.4 -285.6M1125.8 -506.1L1129.8 -463.6L1140.5 -358.6L1137.1 -341.3L1125.1 -330.9L1111.5 -318.3L1095.8 -285.9L1078.0 -220.8L1017.9 -173.8L977.0 -159.2L725.9 -118.6L620.0 -110.4L451.4 -82.1M835.2 346.4L866.2 358.5M866.2 358.5L954.8 395.2L1052.2 394.4L1170.1 325.0L1201.0 322.7L1234.2 327.0L1548.8 464.1M442.5 -80.6L365.7 -67.7L370.3 -61.1L386.5 -38.1L415.6 -19.2L427.5 0.7L427.1 13.6L521.1 139.1L607.3 223.4L704.5 286.4L835.2 346.4M451.4 -82.1L442.5 -80.6M172.7 -41.9L221.0 -45.9M162.1 -41.0L172.7 -41.9" fill="none" stroke="#A8B5AC" stroke-width="2" stroke-linecap="round"></path>
<path d="M47.9 -233.9L53.1 -225.9L60.2 -230.7L54.8 -238.7L47.9 -233.9ZM43.2 -136.2L43.9 -125.8L49.5 -126.0L48.7 -136.5L43.2 -136.2ZM101.9 -168.6L108.5 -159.8L114.8 -164.5L117.7 -166.7L111.1 -175.5L101.9 -168.6ZM100.3 -189.7L91.0 -182.9L97.6 -173.9L106.9 -180.9L100.3 -189.7ZM63.4 -189.3L64.0 -181.0L72.2 -181.4L71.7 -189.7L63.4 -189.3ZM43.2 -187.5L43.6 -181.8L39.9 -181.5L40.5 -175.0L52.7 -176.1L51.7 -188.1L43.2 -187.5ZM64.7 -216.1L65.3 -207.9L72.7 -208.4L72.2 -216.7L64.7 -216.1ZM150.1 -105.7L155.1 -98.9L163.8 -105.1L158.5 -112.0L150.1 -105.7ZM127.0 -138.4L130.9 -133.1L127.8 -130.7L130.7 -126.9L132.0 -127.8L140.6 -134.3L133.7 -143.4L127.0 -138.4ZM141.4 -119.7L147.8 -111.3L154.4 -116.2L148.0 -124.7L141.4 -119.7ZM86.9 -149.6L87.0 -147.1L85.1 -147.0L85.3 -144.8L87.1 -144.9L87.6 -138.5L95.8 -139.0L95.1 -150.0L86.9 -149.6ZM70.5 -141.4L66.7 -141.1L66.8 -140.8L67.3 -133.1L71.1 -133.3L70.5 -141.1L70.5 -141.4ZM92.6 -74.2L93.2 -64.4L103.1 -64.9L102.7 -71.3L102.5 -74.7L92.6 -74.2ZM118.2 -74.4L118.9 -64.8L132.2 -66.0L132.0 -68.8L132.0 -69.0L131.8 -71.7L127.4 -71.4L127.1 -75.1L118.2 -74.4ZM126.9 -59.1L127.0 -57.7L122.8 -57.3L123.6 -47.8L124.2 -47.8L133.3 -48.6L132.5 -59.5L126.9 -59.1ZM154.6 -62.6L154.8 -60.8L153.1 -60.8L153.9 -50.1L162.4 -50.6L161.6 -61.4L159.7 -61.2L159.7 -63.0L154.6 -62.6ZM162.8 -88.2L168.1 -81.4L176.8 -87.7L171.4 -94.4L162.8 -88.2ZM87.5 -132.2L88.3 -121.0L100.0 -122.0L99.2 -132.8L87.5 -132.2ZM68.2 -111.7L68.3 -110.5L68.8 -101.4L69.8 -101.4L77.8 -101.9L77.2 -112.3L68.2 -111.7ZM71.0 -56.0L71.6 -48.3L79.7 -48.8L79.1 -56.6L71.0 -56.0ZM89.4 -108.9L89.9 -100.4L93.5 -100.6L93.7 -97.8L97.7 -98.1L97.5 -100.8L100.4 -101.0L99.8 -109.5L89.4 -108.9ZM92.3 -54.1L92.8 -45.6L95.0 -45.7L100.6 -46.0L103.6 -46.2L103.1 -54.6L92.3 -54.1ZM112.2 -110.4L112.7 -98.2L122.8 -98.6L122.4 -108.1L118.9 -108.0L118.7 -110.7L112.2 -110.4ZM138.7 -214.1L136.7 -212.5L135.8 -213.6L132.8 -211.1L133.7 -210.0L133.4 -209.7L129.4 -210.3L128.7 -204.4L132.3 -203.9L134.8 -200.5L136.0 -200.8L136.1 -200.6L137.0 -201.3L136.9 -201.4L140.0 -203.7L139.8 -204.0L143.9 -208.1L141.7 -211.0L143.5 -212.5L146.0 -214.3L147.8 -212.0L150.0 -213.5L146.0 -218.7L145.2 -218.1L145.8 -217.2L139.8 -212.8L138.7 -214.1ZM85.0 -294.6L84.0 -294.0L77.1 -288.8L99.7 -258.3L101.3 -256.0L108.0 -261.1L110.1 -262.6L96.8 -280.3L95.8 -279.5L93.8 -282.3L89.2 -288.7L85.0 -294.6ZM41.2 -276.9L38.8 -275.1L37.9 -276.3L35.6 -274.5L36.5 -273.3L34.2 -271.7L38.6 -265.7L42.4 -268.6L43.7 -267.0L46.9 -269.3L41.2 -276.9ZM-6.7 -306.1L-8.0 -306.0L-7.0 -295.2L-8.3 -295.0L-7.6 -285.7L-6.2 -285.8L-5.5 -278.5L-6.9 -278.4L-6.1 -269.1L-4.7 -269.3L-4.1 -262.4L-5.4 -262.2L-4.6 -253.0L-3.3 -253.2L-2.3 -242.1L3.3 -242.6L2.9 -246.5L7.9 -247.0L6.2 -266.3L5.8 -271.5L8.0 -271.7L13.5 -272.2L19.6 -276.8L20.4 -275.7L30.5 -283.5L31.3 -284.1L30.5 -285.1L33.6 -287.4L27.2 -295.9L9.5 -282.5L4.8 -282.1L3.3 -298.7L3.1 -301.0L-6.7 -306.1ZM1323.6 906.3L1334.3 911.7L1329.4 921.5L1318.7 916.1L1323.6 906.3ZM982.1 1160.9L994.1 1160.8L994.2 1171.8L982.2 1171.9L982.1 1160.9ZM963.8 1047.0L975.7 1045.5L977.0 1056.4L965.2 1057.9L963.8 1047.0ZM1174.1 997.1L1192.0 997.7L1191.5 1010.2L1173.6 1009.5L1174.1 997.1ZM1078.7 1058.5L1088.7 1058.4L1088.8 1066.6L1078.7 1066.6L1078.7 1058.5ZM1160.0 642.6L1170.7 642.8L1170.5 652.5L1159.9 652.4L1160.0 642.6ZM1266.4 956.3L1278.3 956.3L1278.4 967.2L1266.4 967.3L1266.4 956.3ZM990.6 927.4L1001.4 922.2L1006.1 932.1L995.4 937.3L990.6 927.4ZM1135.6 732.6L1147.6 732.4L1147.7 743.4L1135.8 743.5L1135.6 732.6ZM1084.4 801.7L1094.8 801.6L1094.9 811.0L1084.6 811.2L1084.4 801.7ZM1134.4 841.6L1146.3 841.4L1146.5 852.4L1134.5 852.6L1134.4 841.6ZM897.0 827.8L904.9 824.0L908.5 831.3L900.5 835.1L897.0 827.8ZM1192.7 930.3L1202.6 933.4L1199.0 945.1L1189.0 942.0L1192.7 930.3ZM1138.0 1104.7L1149.9 1104.6L1150.0 1115.5L1138.0 1115.6L1138.0 1104.7ZM1232.8 1065.7L1241.6 1065.7L1241.6 1074.2L1232.8 1074.2L1232.8 1065.7ZM1139.3 563.2L1139.6 553.4L1148.6 553.7L1148.3 563.5L1139.3 563.2ZM938.5 918.6L949.2 913.4L954.0 923.3L943.2 928.5L938.5 918.6ZM1081.7 949.2L1093.7 949.1L1093.7 960.1L1081.7 960.1L1081.7 949.2ZM1075.4 994.9L1087.4 994.9L1087.4 1005.8L1075.5 1005.9L1075.4 994.9ZM1138.1 1025.4L1138.3 1037.4L1127.3 1037.6L1127.2 1025.6L1138.1 1025.4ZM1188.6 1059.9L1197.8 1059.9L1197.9 1070.8L1188.7 1070.9L1188.6 1059.9ZM972.5 995.4L983.3 990.2L988.1 1000.0L977.3 1005.2L972.5 995.4ZM1009.6 919.3L1020.4 914.2L1025.2 924.0L1014.4 929.2L1009.6 919.3ZM917.9 878.7L913.0 868.4L926.2 861.9L928.8 867.3L923.9 869.7L926.3 874.6L917.9 878.7ZM1376.0 868.5L1380.2 859.5L1388.3 863.4L1384.2 872.3L1376.0 868.5ZM1103.2 929.7L1115.2 929.6L1115.2 940.5L1103.3 940.6L1103.2 929.7ZM973.1 1112.8L985.0 1111.4L986.3 1122.2L974.5 1123.7L973.1 1112.8ZM1094.7 1022.3L1105.2 1022.6L1105.0 1032.2L1094.4 1031.9L1094.7 1022.3ZM1108.3 657.0L1120.2 656.8L1120.3 667.8L1108.4 668.0L1108.3 657.0ZM951.9 951.8L962.6 946.6L967.4 956.5L956.6 961.6L951.9 951.8ZM1052.7 792.9L1064.6 792.7L1064.8 803.6L1052.8 803.8L1052.7 792.9ZM1135.1 802.3L1147.1 802.2L1147.3 813.1L1135.3 813.3L1135.1 802.3ZM964.2 1080.6L976.1 1079.1L977.4 1090.0L965.5 1091.4L964.2 1080.6ZM1382.5 996.2L1393.9 999.7L1390.7 1010.2L1379.3 1006.7L1382.5 996.2ZM1137.8 652.3L1138.1 641.9L1147.6 642.1L1147.3 652.5L1137.8 652.3ZM1077.1 906.3L1088.5 909.8L1085.3 920.3L1073.9 916.8L1077.1 906.3ZM1106.8 812.2L1107.1 801.8L1116.7 802.1L1116.3 812.5L1106.8 812.2ZM1202.6 933.4L1209.7 935.6L1206.7 945.3L1206.1 947.3L1199.0 945.1L1202.6 933.4ZM1004.8 893.9L1016.2 897.5L1013.0 907.9L1001.6 904.4L1004.8 893.9ZM1373.1 921.5L1381.6 925.8L1377.7 933.5L1369.2 929.2L1373.1 921.5ZM1159.3 1093.5L1171.2 1093.4L1171.3 1104.4L1164.4 1104.4L1164.4 1101.8L1159.3 1101.8L1159.3 1093.5ZM1237.0 1040.1L1248.9 1040.0L1249.0 1050.9L1237.0 1051.0L1237.0 1040.1ZM1081.7 964.6L1093.7 964.6L1093.7 975.5L1081.7 975.6L1081.7 964.6ZM1163.0 922.6L1174.4 926.2L1171.1 936.5L1159.8 932.9L1163.0 922.6ZM1143.8 1024.9L1153.3 1025.4L1152.8 1034.1L1143.4 1033.6L1143.8 1024.9ZM923.5 883.9L934.4 878.9L938.6 887.8L927.7 892.8L923.5 883.9ZM1199.5 1060.6L1211.5 1060.6L1211.5 1071.5L1199.6 1071.6L1199.5 1060.6ZM916.0 1001.0L926.8 995.7L931.6 1005.5L920.8 1010.8L916.0 1001.0ZM979.9 906.2L990.7 901.1L995.4 910.9L984.7 916.1L979.9 906.2ZM1343.2 863.9L1353.8 869.3L1348.9 879.1L1338.2 873.7L1343.2 863.9ZM1180.5 690.3L1180.0 707.7L1157.9 707.0L1158.5 689.5L1180.5 690.3ZM1081.7 934.2L1093.7 934.1L1093.7 945.1L1081.7 945.1L1081.7 934.2ZM1042.4 1055.6L1051.2 1055.5L1051.3 1066.5L1042.4 1066.5L1042.4 1055.6ZM1268.8 997.6L1280.8 997.5L1280.8 1008.5L1268.8 1008.6L1268.8 997.6ZM1112.2 1025.3L1124.2 1025.2L1124.2 1036.2L1112.2 1036.3L1112.2 1025.3ZM1084.7 729.5L1084.8 723.3L1090.5 723.4L1090.4 729.6L1084.7 729.5ZM1135.1 818.0L1147.1 817.8L1147.3 828.8L1135.3 829.0L1135.1 818.0ZM1025.4 901.5L1036.9 905.0L1033.7 915.4L1022.2 912.0L1025.4 901.5ZM1344.4 933.8L1354.4 937.2L1351.3 946.4L1341.2 943.0L1344.4 933.8ZM1235.3 1095.9L1247.3 1095.9L1247.4 1106.8L1235.4 1106.9L1235.3 1095.9ZM1099.4 534.5L1107.2 534.4L1107.4 541.6L1099.6 541.7L1099.4 534.5ZM1088.5 653.9L1100.4 653.8L1100.6 664.7L1088.6 664.9L1088.5 653.9ZM1154.9 817.2L1166.9 817.1L1167.0 828.0L1155.1 828.2L1154.9 817.2ZM1106.2 998.8L1118.1 997.8L1119.0 1008.7L1107.1 1009.7L1106.2 998.8ZM1230.6 941.7L1245.2 946.4L1241.6 957.7L1227.0 952.9L1230.6 941.7ZM1011.6 868.0L1023.1 871.4L1019.9 881.9L1008.4 878.5L1011.6 868.0ZM1139.9 1058.8L1148.3 1058.8L1148.4 1067.2L1140.0 1067.2L1139.9 1058.8ZM930.4 898.4L941.2 893.1L945.9 903.0L935.2 908.2L930.4 898.4ZM1187.3 1093.1L1197.1 1093.0L1197.2 1105.4L1192.3 1105.4L1192.3 1101.6L1187.4 1101.6L1187.3 1093.1ZM1028.3 874.6L1039.7 878.1L1036.6 888.6L1025.1 885.1L1028.3 874.6ZM1317.0 927.9L1327.7 933.3L1322.8 943.1L1312.1 937.6L1317.0 927.9ZM1148.6 942.8L1160.5 942.7L1160.6 953.6L1148.6 953.7L1148.6 942.8ZM1103.6 950.3L1115.6 950.2L1115.6 961.2L1103.7 961.2L1103.6 950.3ZM1095.7 1058.1L1105.5 1058.0L1105.6 1067.9L1095.8 1068.0L1095.7 1058.1ZM1165.7 1028.8L1176.7 1028.7L1176.7 1038.7L1165.8 1038.8L1165.7 1028.8ZM1140.4 746.8L1152.4 746.6L1152.5 757.6L1140.6 757.7L1140.4 746.8ZM1335.5 883.0L1346.2 888.4L1341.3 898.2L1330.6 892.8L1335.5 883.0ZM1000.3 1055.6L1012.3 1055.4L1012.4 1066.4L1004.5 1066.5L1004.4 1063.0L1000.4 1063.0L1000.3 1055.6ZM1204.9 646.7L1172.9 646.0L1173.4 628.6L1205.3 629.4L1204.9 646.7ZM1068.2 1057.7L1068.2 1068.6L1058.9 1068.7L1058.8 1057.7L1068.2 1057.7ZM1162.0 553.6L1172.9 553.9L1172.6 563.9L1161.7 563.5L1162.0 553.6ZM1148.1 915.8L1159.5 919.3L1156.3 929.8L1144.9 926.4L1148.1 915.8ZM1158.2 732.0L1170.2 731.9L1170.3 742.8L1158.4 743.0L1158.2 732.0ZM1198.8 651.1L1198.2 687.2L1175.6 686.8L1176.2 650.7L1198.8 651.1ZM1174.4 926.2L1185.7 929.7L1182.5 940.0L1171.1 936.5L1174.4 926.2ZM1171.3 660.2L1170.9 679.5L1141.3 678.8L1141.8 659.4L1171.3 660.2ZM1336.9 981.8L1348.1 985.7L1344.5 996.0L1333.2 992.1L1336.9 981.8ZM1270.4 1099.9L1279.5 1099.9L1279.6 1107.0L1270.5 1107.1L1270.4 1099.9ZM1113.2 532.7L1113.3 522.9L1122.3 522.9L1122.2 532.8L1113.2 532.7ZM1084.2 980.1L1096.1 980.0L1096.3 991.0L1084.3 991.1L1084.2 980.1ZM1167.0 1063.6L1175.7 1063.5L1175.8 1074.5L1167.1 1074.5L1167.0 1063.6ZM963.0 978.2L973.8 972.9L978.5 982.8L967.8 988.0L963.0 978.2ZM962.8 884.3L973.6 879.2L978.4 889.0L967.6 894.2L962.8 884.3ZM1203.3 1092.8L1217.4 1092.7L1217.5 1103.7L1208.6 1103.7L1208.6 1101.1L1203.4 1101.1L1203.3 1092.8ZM1050.0 881.5L1061.4 884.9L1058.2 895.4L1046.8 892.0L1050.0 881.5ZM906.8 847.0L917.3 842.0L921.4 850.6L910.8 855.6L906.8 847.0ZM986.5 1024.8L997.3 1019.6L1002.1 1029.4L991.3 1034.7L986.5 1024.8ZM1376.8 886.9L1372.4 896.8L1364.5 893.2L1368.8 883.3L1376.8 886.9ZM1087.3 919.6L1099.2 919.6L1099.3 930.5L1087.3 930.6L1087.3 919.6ZM1104.1 972.9L1116.1 972.8L1116.1 983.7L1104.2 983.8L1104.1 972.9ZM1081.9 1021.8L1089.5 1021.8L1089.5 1031.9L1082.0 1031.9L1081.9 1021.8ZM1118.6 1056.6L1128.7 1056.5L1128.7 1065.7L1118.7 1065.8L1118.6 1056.6ZM945.6 936.4L956.4 931.2L961.1 941.0L950.4 946.3L945.6 936.4ZM1070.8 782.4L1070.5 775.6L1076.8 775.4L1077.0 782.2L1070.8 782.4ZM-54.0 -1.6L-53.9 -1.2L-52.6 -1.3L-52.4 1.7L-54.6 1.9L-54.4 5.5L-53.5 5.4L-53.3 8.6L-44.4 8.0L-45.1 -2.2L-54.0 -1.6ZM101.3 -256.0L99.7 -258.3L95.1 -254.7L99.7 -248.3L108.0 -254.4L113.4 -258.3L110.1 -262.6L108.0 -261.1L101.3 -256.0ZM12.0 433.3L11.0 434.4L11.5 440.6L12.5 441.6L14.6 441.4L16.8 443.3L25.1 442.7L24.8 438.7L22.0 438.9L21.5 432.7L12.0 433.3ZM29.3 545.2L30.0 553.0L34.0 552.7L34.1 554.5L35.9 554.3L35.8 552.4L38.5 552.2L38.3 550.3L38.3 550.0L38.0 544.5L29.3 545.2ZM-26.1 448.1L-25.7 453.8L-20.5 453.5L-20.2 459.9L-19.0 459.8L-18.8 462.2L-11.8 461.8L-12.8 447.3L-26.1 448.1ZM31.3 484.4L31.9 489.7L32.5 494.2L40.1 493.3L39.8 490.1L40.3 490.0L41.0 489.1L40.8 487.4L40.0 486.7L39.4 486.8L38.9 483.4L31.3 484.4ZM-1.0 115.3L-0.5 122.4L1.3 122.3L1.4 123.9L5.0 123.7L4.9 122.1L7.2 121.9L7.6 121.8L7.3 118.4L12.5 118.0L12.3 114.3L-1.0 115.3ZM27.7 666.5L28.3 674.1L36.5 673.5L36.1 668.0L35.9 665.9L33.0 666.1L32.9 664.5L31.1 664.7L31.3 666.3L27.7 666.5ZM10.7 414.9L11.3 422.7L10.3 423.4L10.5 426.1L11.6 426.6L21.6 425.8L21.4 424.0L24.1 423.8L23.6 418.2L20.1 418.5L19.7 414.2L17.8 414.3L10.7 414.9ZM-77.7 -22.9L-77.3 -17.9L-75.2 -18.1L-74.2 -5.9L-65.6 -6.5L-65.9 -10.9L-66.6 -10.8L-66.7 -12.8L-67.8 -12.8L-68.0 -15.4L-64.1 -15.6L-64.4 -18.4L-68.6 -18.0L-68.9 -23.5L-77.7 -22.9ZM643.2 462.5L644.9 464.6L649.4 461.2L647.9 459.0L643.2 462.5ZM-18.8 9.4L-18.2 18.4L-11.2 18.0L-11.6 8.9L-18.8 9.4ZM36.1 668.0L36.5 673.5L41.7 673.1L41.3 667.6L36.1 668.0ZM10.4 153.2L10.8 157.4L17.0 156.8L16.7 152.8L10.4 153.2ZM31.4 457.1L32.2 461.2L39.1 460.0L38.3 455.9L31.4 457.1ZM387.2 96.6L390.7 101.6L395.0 98.3L391.5 93.5L387.2 96.6ZM497.3 481.7L500.4 486.9L506.5 483.0L503.4 478.0L497.3 481.7ZM8.5 397.9L9.2 407.4L21.5 406.5L20.9 397.0L8.5 397.9ZM72.1 565.0L72.7 575.0L81.3 574.4L80.5 564.3L72.1 565.0ZM-57.2 91.5L-56.6 99.5L-51.3 99.1L-51.8 91.1L-57.2 91.5ZM2.5 162.8L2.7 165.9L9.6 165.4L9.4 162.3L2.5 162.8ZM20.6 453.7L21.1 459.2L26.2 458.9L25.7 453.3L20.6 453.7ZM35.5 639.4L35.8 644.0L43.3 643.6L43.0 639.0L35.5 639.4ZM51.3 -75.9L51.7 -69.2L62.8 -69.9L62.3 -76.5L51.3 -75.9ZM441.1 184.9L433.0 190.8L450.5 214.1L458.3 208.1L441.1 184.9ZM95.0 -45.7L95.1 -43.7L100.7 -43.9L100.6 -46.0L95.0 -45.7ZM-30.8 522.1L-30.2 529.3L-26.3 529.1L-26.8 521.9L-30.8 522.1ZM36.7 -229.7L37.2 -222.6L40.9 -223.0L40.3 -230.1L36.7 -229.7ZM-3.5 -12.6L-6.1 -12.6L-5.9 -8.7L-3.3 -8.8L-3.5 -12.6ZM22.6 473.7L23.1 479.1L27.5 478.8L27.2 473.3L22.6 473.7ZM54.5 -213.6L54.8 -208.9L58.7 -209.1L58.4 -214.0L54.5 -213.6ZM-11.9 -264.5L-14.0 -264.3L-13.6 -259.0L-11.3 -259.3L-11.9 -264.5ZM43.6 553.5L43.7 556.6L59.8 555.7L59.6 552.7L43.6 553.5ZM138.0 -58.3L138.4 -52.5L142.2 -52.7L141.9 -58.4L138.0 -58.3ZM-22.2 487.9L-21.5 498.6L-9.6 497.8L-10.3 487.0L-22.2 487.9ZM-19.9 648.5L-19.4 655.0L-15.2 654.9L-15.6 648.2L-19.9 648.5ZM-17.9 544.2L-17.8 547.0L-13.7 546.7L-13.9 543.9L-17.9 544.2ZM2.8 205.1L3.2 210.3L8.4 209.8L8.0 204.7L2.8 205.1ZM1.0 140.7L1.2 143.9L8.1 143.5L8.0 140.3L1.0 140.7ZM648.2 434.5L651.2 438.5L655.1 435.6L652.2 431.6L648.2 434.5ZM41.6 -163.5L42.1 -156.9L47.1 -157.0L46.7 -163.8L41.6 -163.5ZM-0.8 265.2L-0.3 273.2L8.0 272.6L7.4 264.7L-0.8 265.2ZM-17.9 -25.0L-17.3 -19.1L-6.8 -20.1L-7.4 -26.0L-17.9 -25.0ZM0.8 97.3L1.3 102.7L6.7 102.3L6.4 96.9L0.8 97.3ZM652.0 463.1L653.6 465.2L657.4 462.3L655.8 460.3L652.0 463.1ZM-41.1 166.5L-40.7 172.0L-38.0 171.7L-38.3 166.3L-41.1 166.5ZM5.8 -271.5L6.2 -266.3L8.5 -266.5L8.0 -271.7L5.8 -271.5ZM27.7 372.6L28.1 382.0L41.9 381.4L41.6 372.0L27.7 372.6ZM58.0 672.1L57.7 675.7L61.6 676.2L61.9 672.4L58.0 672.1ZM22.4 593.5L22.9 602.1L29.9 601.6L29.4 592.9L22.4 593.5ZM0.2 129.6L0.5 133.6L8.5 133.2L8.3 129.1L0.2 129.6ZM184.0 -55.3L182.3 -55.2L182.7 -50.1L185.9 -50.4L184.0 -55.3ZM43.3 644.4L43.7 649.9L48.4 649.7L47.9 644.0L43.3 644.4ZM103.3 -25.2L103.0 -18.9L107.9 -18.6L108.1 -25.0L103.3 -25.2ZM63.9 -70.5L64.6 -59.2L71.6 -59.5L70.9 -70.7L63.9 -70.5ZM476.2 247.2L481.0 253.7L486.7 249.5L481.9 243.0L476.2 247.2ZM612.1 409.5L603.4 416.0L616.9 433.8L625.6 427.4L612.1 409.5ZM51.7 -220.6L52.4 -215.8L60.9 -217.0L60.1 -221.9L51.7 -220.6ZM44.8 668.1L45.2 673.5L49.4 673.3L49.0 667.9L44.8 668.1ZM-51.1 15.8L-50.3 25.6L-43.1 25.0L-43.9 15.2L-51.1 15.8ZM42.2 -202.3L42.4 -199.9L45.9 -200.1L45.7 -202.8L42.2 -202.3ZM-18.7 438.2L-18.4 443.2L-13.1 443.1L-13.4 438.0L-18.7 438.2ZM29.2 528.3L29.5 533.6L37.8 532.9L37.2 527.5L29.2 528.3ZM177.3 -58.5L177.6 -55.3L182.2 -55.6L181.9 -58.9L177.3 -58.5ZM126.2 -24.2L127.0 -20.1L129.7 -20.6L128.7 -24.8L126.2 -24.2ZM482.2 125.3L485.6 129.7L489.3 126.8L485.8 122.3L482.2 125.3ZM38.0 544.5L38.3 550.0L43.7 549.6L43.3 544.2L38.0 544.5ZM31.9 404.5L32.3 409.8L39.6 409.2L39.2 403.9L31.9 404.5ZM12.7 212.4L13.1 216.7L18.4 216.3L18.1 211.9L12.7 212.4ZM124.2 -47.8L124.3 -45.6L133.4 -46.5L133.3 -48.6L124.2 -47.8ZM34.7 648.0L35.2 653.5L40.1 653.2L39.7 647.6L34.7 648.0ZM651.2 438.7L646.0 442.6L649.1 446.7L654.4 442.9L651.2 438.7ZM102.7 -71.3L103.1 -64.9L105.7 -65.1L105.2 -71.3L102.7 -71.3ZM4.5 339.8L5.2 348.1L13.6 347.4L13.0 339.2L4.5 339.8ZM154.4 -50.0L154.6 -47.7L162.4 -48.3L162.4 -50.6L154.4 -50.0ZM-12.3 648.5L-11.7 654.4L-6.4 654.0L-7.0 648.2L-12.3 648.5ZM90.5 -90.0L90.8 -84.5L101.7 -85.1L101.5 -90.5L90.5 -90.0ZM-26.2 531.2L-25.9 536.6L-22.6 536.4L-22.8 531.1L-26.2 531.2ZM-4.7 212.8L-4.6 215.1L-2.0 214.9L-2.1 212.6L-4.7 212.8ZM15.2 488.8L15.4 491.8L20.3 491.6L20.1 488.5L15.2 488.8ZM-30.7 511.5L-30.3 515.3L-28.0 515.1L-28.3 511.4L-30.7 511.5ZM733.0 406.6L739.3 413.0L747.2 405.3L740.9 398.9L733.0 406.6ZM-43.9 452.2L-48.8 452.6L-48.3 459.9L-43.3 459.6L-43.9 452.2ZM2.0 153.8L2.5 162.8L9.4 162.3L8.9 153.4L2.0 153.8ZM58.7 -181.6L59.0 -176.9L62.6 -177.1L62.2 -181.7L58.7 -181.6ZM-13.7 90.5L-13.1 98.7L-1.3 97.7L-2.0 89.5L-13.7 90.5ZM496.4 258.3L488.6 264.0L523.2 309.5L531.1 303.8L496.4 258.3ZM22.9 349.3L23.2 354.7L31.3 354.1L30.8 348.7L22.9 349.3ZM-12.5 551.3L-12.2 554.5L-6.2 554.0L-6.5 550.9L-12.5 551.3ZM1.1 62.6L1.5 69.0L5.6 68.8L5.2 62.5L1.1 62.6ZM-1.2 -23.9L-0.6 -17.2L4.6 -17.7L4.0 -24.4L-1.2 -23.9ZM41.0 602.9L41.2 606.6L45.5 606.4L45.2 602.8L41.0 602.9ZM487.1 430.5L471.2 442.9L476.0 448.9L491.9 436.4L487.1 430.5ZM-59.3 160.4L-58.9 164.4L-56.4 164.2L-56.7 160.2L-59.3 160.4ZM342.9 56.9L331.9 65.1L358.0 99.9L368.9 91.5L342.9 56.9ZM-41.0 460.1L-40.6 464.1L-26.1 462.6L-26.5 458.5L-41.0 460.1ZM64.1 -140.6L64.7 -132.9L67.3 -133.1L66.8 -140.8L64.1 -140.6ZM-15.3 687.5L-15.0 692.4L-10.6 692.3L-11.0 687.2L-15.3 687.5ZM-15.7 -273.1L-15.4 -267.5L-12.6 -267.7L-13.0 -273.3L-15.7 -273.1ZM132.8 -224.8L137.4 -218.6L143.3 -223.0L138.6 -229.0L132.8 -224.8ZM493.7 240.0L501.1 249.5L519.0 236.2L511.7 226.5L493.7 240.0ZM26.6 203.3L27.7 213.6L29.5 213.5L28.4 203.1L26.6 203.3ZM-6.8 64.3L-6.5 70.1L-1.4 69.7L-2.0 64.0L-6.8 64.3ZM16.8 134.1L17.2 139.6L19.8 139.4L19.5 134.0L16.8 134.1ZM98.9 -138.1L99.1 -136.1L101.7 -136.2L101.6 -138.3L98.9 -138.1ZM-38.6 125.9L-38.5 128.6L-33.0 128.2L-33.2 125.5L-38.6 125.9ZM-2.6 244.3L-1.6 256.8L8.2 256.0L7.1 243.5L-2.6 244.3ZM14.1 479.9L14.4 484.1L23.4 483.5L23.1 479.2L14.1 479.9ZM23.9 484.1L24.5 490.5L31.9 489.7L31.3 484.4L31.1 483.5L23.9 484.1ZM-21.3 515.8L-20.9 519.7L-20.8 521.1L-15.8 520.8L-16.1 515.4L-21.3 515.8ZM-15.1 64.9L-14.6 72.8L-6.3 72.2L-6.5 70.1L-6.8 64.3L-15.1 64.9ZM9.5 411.6L9.8 415.0L10.7 414.9L17.8 414.3L17.5 410.9L9.5 411.6ZM-68.9 -23.5L-68.6 -18.0L-64.4 -18.4L-62.8 -18.5L-63.1 -23.9L-68.9 -23.5ZM-52.7 167.6L-52.4 171.7L-49.2 171.8L-49.5 167.2L-50.1 167.3L-52.7 167.6ZM-49.7 441.3L-48.8 452.6L-43.9 452.2L-39.8 451.9L-40.8 440.7L-49.7 441.3ZM39.3 564.2L39.7 569.7L44.8 569.4L44.7 569.1L44.3 563.8L39.3 564.2ZM-49.5 167.2L-49.2 171.8L-41.3 171.1L-41.5 166.3L-44.9 166.7L-49.5 167.2ZM31.4 427.9L31.9 435.8L33.2 435.7L35.1 435.6L34.4 427.7L31.4 427.9ZM29.6 435.9L30.4 446.1L33.8 445.9L33.2 435.7L31.9 435.8L29.6 435.9ZM45.2 673.5L45.4 676.7L49.9 676.6L49.9 673.4L49.4 673.3L45.2 673.5ZM-12.2 554.5L-12.0 558.1L-11.5 563.9L-4.1 563.4L-4.9 553.9L-6.2 554.0L-12.2 554.5ZM150.0 -213.5L147.8 -212.0L149.6 -209.5L147.6 -208.0L149.2 -206.0L153.4 -209.0L150.0 -213.5ZM3.1 79.6L3.2 81.2L1.1 81.3L1.2 82.8L5.9 82.4L5.6 79.4L3.1 79.6ZM91.5 -290.4L89.2 -288.7L93.8 -282.3L95.3 -283.5L96.0 -284.0L91.5 -290.4ZM177.6 -55.3L178.0 -49.3L182.7 -49.6L182.7 -50.1L182.3 -55.2L182.2 -55.6L177.6 -55.3ZM611.2 350.9L593.4 327.3L576.0 340.4L630.7 413.3L648.2 400.1L611.2 350.9ZM-55.0 151.3L-54.2 160.7L-45.4 160.2L-45.8 154.2L-42.5 154.0L-42.7 150.4L-55.0 151.3ZM-31.6 516.6L-31.4 519.0L-25.6 518.6L-25.4 520.0L-20.9 519.7L-21.3 515.8L-31.6 516.6ZM466.5 112.4L465.0 111.9L463.3 113.2L463.3 114.8L472.0 126.3L475.1 123.8L466.5 112.4ZM495.4 485.2L492.0 487.4L491.6 487.7L493.7 490.9L497.5 488.7L495.4 485.2ZM-53.7 52.1L-53.3 57.4L-51.8 57.3L-51.8 57.2L-46.7 56.8L-47.0 51.7L-53.7 52.1ZM20.2 117.4L20.5 121.0L21.8 120.9L21.8 120.6L24.4 120.4L24.1 117.1L20.2 117.4ZM13.5 472.1L14.1 479.9L23.1 479.2L23.1 479.1L22.6 473.7L22.4 471.3L13.5 472.1ZM19.6 203.7L20.7 216.2L27.8 215.6L27.7 213.6L26.6 203.3L26.6 203.0L19.6 203.7ZM16.0 509.0L17.2 525.1L25.7 524.5L25.5 521.3L27.9 521.2L27.1 508.3L16.0 509.0ZM36.1 660.6L36.5 664.9L45.2 664.2L45.2 663.0L49.0 662.8L48.8 659.7L36.1 660.6ZM66.1 -110.4L66.5 -100.8L69.8 -101.0L69.8 -101.4L68.8 -101.4L68.3 -110.5L66.1 -110.4ZM47.6 564.6L45.4 563.8L44.3 563.8L44.7 569.1L61.1 567.8L60.8 563.7L47.6 564.6ZM-5.3 205.7L-4.7 212.8L-2.1 212.6L-2.0 214.9L3.5 214.5L3.2 210.3L2.8 205.1L-5.3 205.7ZM79.1 -56.6L79.7 -48.8L84.5 -49.0L84.0 -56.7L84.0 -56.9L84.0 -57.0L79.1 -56.6ZM14.2 139.3L14.3 139.8L14.2 139.8L10.7 140.1L11.5 148.5L17.2 148.1L16.4 139.1L14.2 139.3ZM-54.2 160.7L-53.9 163.7L-50.4 163.5L-50.1 167.3L-49.5 167.2L-44.9 166.7L-45.4 160.2L-54.2 160.7ZM11.9 110.3L12.1 112.5L12.3 114.3L12.5 118.0L14.5 117.9L17.9 117.6L17.3 110.2L11.9 110.3ZM7.2 380.1L8.0 388.5L15.3 388.1L15.1 385.0L15.5 384.4L15.3 383.0L14.8 382.6L14.6 379.5L7.2 380.1ZM-44.2 110.9L-43.9 114.5L-45.2 115.4L-45.1 117.1L-43.6 117.8L-43.4 121.4L-34.5 120.7L-35.3 110.2L-44.2 110.9ZM5.9 361.8L6.7 371.0L10.4 370.7L11.3 371.6L13.6 371.4L14.4 370.4L14.6 370.4L13.9 361.2L5.9 361.8ZM-47.2 93.9L-46.6 101.9L-41.5 101.5L-40.7 102.2L-39.0 102.1L-38.3 101.3L-37.7 101.2L-38.2 93.3L-47.2 93.9ZM640.1 424.2L646.1 432.9L650.4 429.9L646.8 424.7L648.8 423.3L647.6 421.7L645.7 423.0L644.5 421.3L640.1 424.2ZM21.8 120.6L21.8 120.9L22.1 123.7L20.5 123.9L20.6 126.3L32.9 125.2L32.5 119.6L24.4 120.4L21.8 120.6ZM63.8 -144.8L64.1 -140.6L66.8 -140.8L66.7 -141.1L70.5 -141.4L70.5 -141.1L72.0 -141.2L71.6 -145.5L63.8 -144.8ZM0.2 -8.2L0.8 0.8L7.6 0.3L7.5 -1.7L8.2 -2.5L8.0 -3.8L7.3 -4.3L7.0 -8.8L0.2 -8.2ZM562.2 300.9L559.1 303.3L560.8 305.4L540.0 321.2L535.5 324.7L542.7 334.5L571.1 312.6L562.2 300.9ZM-51.8 57.2L-51.8 57.3L-51.4 62.3L-52.9 62.4L-52.6 67.5L-40.2 66.6L-40.9 56.4L-46.7 56.8L-51.8 57.2ZM25.4 -272.0L21.2 -269.2L24.4 -265.1L28.4 -268.0L25.4 -272.0ZM-41.8 131.5L-41.5 135.5L-41.9 136.0L-41.8 137.7L-41.3 138.2L-41.0 142.1L-33.1 141.6L-33.8 130.9L-41.8 131.5ZM1.7 302.9L1.9 305.8L0.9 305.9L1.2 310.3L2.2 310.2L2.5 313.1L11.5 312.4L10.7 302.3L1.7 302.9ZM209.6 -24.3L208.7 -25.4L207.1 -24.3L210.5 -19.0L212.3 -20.1L211.6 -21.4L215.3 -24.0L213.2 -26.8L209.6 -24.3ZM-7.0 648.2L-6.4 654.0L-6.2 656.1L-0.4 655.5L-0.4 657.5L1.3 657.4L1.1 655.5L2.4 655.4L1.9 647.5L-7.0 648.2ZM0.5 133.6L1.0 140.7L8.0 140.3L10.7 140.1L14.2 139.8L14.2 139.3L13.9 134.2L8.5 134.4L8.5 133.2L0.5 133.6ZM34.6 562.3L30.9 562.5L31.5 570.3L39.7 569.7L39.3 564.2L39.1 562.0L36.2 562.2L36.2 560.5L34.4 560.6L34.6 562.3ZM-16.1 515.4L-15.8 520.8L-15.6 522.9L-12.2 522.7L-12.1 524.0L-10.2 523.9L-10.3 522.5L-7.4 522.3L-8.0 514.6L-16.1 515.4ZM26.5 648.6L27.0 656.3L30.7 656.0L30.8 657.2L32.5 657.1L32.4 655.9L35.3 655.7L35.2 653.5L34.7 648.0L26.5 648.6ZM7.3 118.4L7.6 121.8L7.2 121.9L7.3 123.6L12.9 123.1L12.8 121.2L14.8 121.0L14.5 117.9L12.5 118.0L7.3 118.4ZM12.5 454.3L13.2 462.0L16.0 461.8L16.1 463.5L17.9 463.4L17.8 461.6L21.2 461.4L21.1 459.2L20.6 453.7L12.5 454.3ZM-1.0 225.6L-2.8 225.7L-2.6 227.1L-5.1 227.3L-4.7 235.1L3.4 234.5L3.0 229.0L2.8 226.8L-1.0 227.0L-1.0 225.6ZM988.2 870.4L983.0 872.8L986.2 880.0L991.4 877.6L988.2 870.4ZM1331.9 998.5L1329.6 1004.4L1324.7 1002.4L1327.1 996.6L1331.9 998.5ZM1268.9 1077.9L1276.1 1077.9L1276.1 1087.0L1268.9 1087.0L1268.9 1077.9ZM1074.2 1021.9L1081.9 1021.8L1081.9 1032.0L1074.3 1032.0L1074.2 1021.9ZM1111.9 909.2L1115.0 900.9L1122.7 903.7L1119.6 912.1L1111.9 909.2ZM1204.9 999.4L1204.4 1013.1L1192.0 1012.6L1192.4 998.9L1204.9 999.4ZM1361.8 918.9L1357.7 928.5L1348.9 924.9L1352.9 915.2L1361.8 918.9ZM1094.9 531.7L1095.1 522.9L1100.3 523.0L1100.2 531.7L1094.9 531.7ZM1107.1 743.0L1116.2 742.9L1116.3 751.3L1107.1 751.4L1107.1 743.0ZM1150.1 1132.7L1147.0 1132.7L1147.0 1122.7L1150.1 1122.7L1150.1 1132.7ZM0.6 179.8L10.6 179.5L11.4 194.9L1.3 195.4L0.6 179.8ZM192.5 -55.4L183.4 -68.0L189.7 -72.5L198.8 -60.0L192.5 -55.4ZM164.0 -77.9L156.3 -72.3L151.5 -79.0L159.2 -84.5L164.0 -77.9ZM954.5 861.7L941.6 857.5L945.2 846.5L958.1 850.7L954.5 861.7ZM-8.6 -51.5L-17.1 -51.0L-17.0 -48.8L-16.7 -43.2L-16.5 -40.2L-8.0 -40.7L-8.6 -51.5ZM25.7 -56.9L26.1 -48.4L28.3 -48.5L33.9 -48.8L36.9 -48.9L36.4 -57.4L25.7 -56.9ZM5.4 -55.4L5.8 -46.9L8.0 -47.0L13.6 -47.3L16.6 -47.5L16.1 -55.9L5.4 -55.4ZM32.9 -73.9L24.5 -73.5L24.5 -71.3L24.7 -65.8L24.8 -62.8L33.3 -63.1L32.9 -73.9ZM29.9 -93.9L21.4 -93.7L21.5 -91.5L21.7 -85.8L21.8 -82.8L30.3 -83.1L29.9 -93.9ZM29.6 -117.2L21.2 -116.9L21.2 -114.8L21.4 -109.1L21.5 -106.1L30.0 -106.4L29.6 -117.2ZM965.9 853.6L985.1 859.8L982.2 868.8L977.3 867.2L975.8 871.7L961.5 867.2L965.9 853.6ZM1210.0 934.7L1217.9 937.2L1214.6 947.8L1206.7 945.3L1209.7 935.6L1210.0 934.7ZM1243.7 971.3L1253.0 971.3L1253.0 982.8L1243.7 982.8L1243.7 971.3ZM7.8 220.7L21.4 220.2L21.9 233.2L8.3 233.7L7.8 220.7ZM-1.0 286.3L0.1 298.7L9.8 297.9L8.8 285.5L-1.0 286.3ZM2.2 320.0L19.0 318.6L20.1 331.2L3.3 332.6L2.2 320.0ZM-112.9 183.6L-112.3 194.5L-101.9 193.8L-102.6 183.0L-112.9 183.6ZM-45.5 216.5L-33.5 216.2L-33.4 223.0L-26.8 222.8L-26.7 228.3L-43.4 228.7L-43.4 226.4L-45.3 226.5L-45.5 216.5ZM-47.5 74.0L-46.9 82.0L-41.8 81.6L-41.0 82.3L-39.2 82.2L-38.6 81.4L-37.9 81.3L-38.5 73.4L-47.5 74.0ZM-43.6 -254.5L-30.7 -255.2L-30.2 -246.2L-34.1 -246.0L-33.8 -240.1L-42.8 -239.7L-43.6 -254.5ZM-37.6 -235.5L-24.7 -236.2L-24.2 -227.2L-28.1 -227.0L-27.8 -221.2L-36.8 -220.7L-37.6 -235.5ZM-37.1 -272.1L-27.5 -272.6L-27.1 -263.9L-36.7 -263.4L-37.1 -272.1ZM-41.0 -216.2L-31.3 -216.7L-30.8 -208.0L-40.5 -207.5L-41.0 -216.2ZM-34.1 -114.1L-24.4 -114.6L-23.9 -105.9L-33.6 -105.4L-34.1 -114.1ZM-27.7 -136.8L-18.1 -137.3L-17.6 -128.6L-27.3 -128.1L-27.7 -136.8ZM-63.5 -127.2L-53.4 -128.0L-52.8 -120.8L-62.9 -120.0L-63.5 -127.2ZM1139.5 992.5L1138.9 1002.9L1147.9 1003.4L1148.5 993.1L1139.5 992.5ZM1100.2 768.6L1099.6 781.5L1114.9 782.3L1115.6 769.3L1100.2 768.6ZM1356.1 845.2L1366.7 850.5L1361.8 860.3L1351.1 855.0L1356.1 845.2ZM1358.9 829.2L1372.3 835.5L1367.7 845.5L1354.3 839.2L1358.9 829.2ZM1363.9 812.9L1377.4 819.0L1372.7 829.0L1359.3 822.9L1363.9 812.9ZM1375.5 792.0L1387.2 797.3L1380.9 811.2L1372.9 807.6L1375.5 801.9L1371.8 800.2L1375.5 792.0ZM-67.0 -226.8L-55.4 -227.6L-54.7 -214.8L-66.1 -214.0L-67.0 -226.8ZM1169.2 1006.4L1171.8 1006.4L1171.7 1013.8L1168.3 1013.7L1168.3 1009.8L1169.1 1009.8L1169.2 1006.4ZM1169.2 997.4L1169.2 1006.4L1169.1 1009.8L1168.3 1009.8L1157.4 1009.7L1157.5 997.3L1169.2 997.4ZM1211.8 1055.5L1209.0 1055.6L1208.9 1053.1L1211.7 1053.0L1211.8 1055.5ZM1223.1 1059.3L1217.7 1059.4L1217.6 1056.8L1218.7 1056.8L1218.6 1054.2L1223.0 1054.1L1223.1 1059.3ZM1229.9 1051.4L1227.7 1051.4L1227.7 1047.6L1229.9 1047.6L1229.9 1051.4ZM1234.6 1037.6L1234.7 1044.9L1228.7 1045.0L1228.6 1037.7L1234.6 1037.6ZM1182.4 1025.2L1182.4 1035.9L1180.0 1035.9L1180.0 1025.2L1182.4 1025.2ZM1178.1 1040.6L1178.0 1037.1L1181.8 1037.0L1181.8 1040.5L1178.1 1040.6ZM1192.4 1058.5L1192.3 1054.4L1196.8 1054.3L1196.9 1058.4L1192.4 1058.5ZM1209.9 1047.3L1209.8 1043.8L1213.6 1043.7L1213.6 1047.2L1209.9 1047.3ZM1200.7 1031.0L1203.7 1031.0L1203.7 1031.5L1207.3 1031.5L1207.3 1033.3L1208.4 1033.3L1208.4 1040.4L1204.3 1040.4L1204.3 1042.2L1200.1 1042.2L1200.1 1040.4L1196.0 1040.4L1196.0 1033.3L1197.1 1033.3L1197.1 1031.5L1200.7 1031.5L1200.7 1031.0ZM1274.9 1075.0L1281.8 1075.1L1281.8 1077.8L1274.9 1077.8L1274.9 1075.0ZM1276.3 1068.7L1279.6 1068.7L1279.6 1071.1L1276.3 1071.1L1276.3 1068.7ZM1274.9 1032.7L1274.9 1028.7L1278.8 1028.7L1278.9 1032.6L1274.9 1032.7ZM1270.9 1034.4L1277.7 1034.4L1277.7 1039.9L1270.9 1039.9L1270.9 1034.4ZM1268.9 1041.9L1278.1 1041.8L1278.2 1052.8L1268.9 1052.8L1268.9 1041.9ZM-59.6 -92.0L-46.3 -92.9L-45.5 -80.5L-54.2 -79.9L-54.5 -83.5L-59.0 -83.2L-59.6 -92.0ZM-57.6 -62.2L-48.5 -62.9L-47.8 -54.5L-56.9 -53.8L-57.6 -62.2ZM-23.5 -86.8L-11.6 -87.3L-11.3 -79.4L-23.1 -78.8L-23.5 -86.8ZM-63.8 -147.0L-64.1 -154.8L-57.5 -155.1L-57.5 -157.3L-52.1 -157.6L-52.0 -155.1L-54.8 -155.0L-54.5 -147.4L-63.8 -147.0ZM-36.2 -149.8L-26.0 -150.3L-25.6 -142.8L-35.8 -142.3L-36.2 -149.8ZM-62.5 -190.9L-54.8 -191.3L-54.4 -182.7L-62.1 -182.3L-62.5 -190.9ZM-37.8 -190.9L-28.8 -191.5L-28.3 -182.1L-37.3 -181.5L-37.8 -190.9ZM18.8 -170.4L27.4 -170.8L27.8 -162.0L19.2 -161.6L18.8 -170.4ZM16.6 -190.5L26.6 -191.1L27.1 -181.9L17.1 -181.4L16.6 -190.5ZM-73.8 -292.4L-61.0 -293.0L-60.5 -282.9L-73.4 -282.3L-73.8 -292.4ZM18.5 -152.7L28.3 -153.5L29.3 -143.1L19.1 -142.6L18.5 -152.7ZM-45.1 193.7L-29.2 192.7L-28.8 202.1L-45.1 203.0L-45.1 193.7ZM-8.2 -1.7L-2.7 -1.9L-2.5 3.8L-8.0 3.9L-8.2 -1.7ZM98.8 -241.6L105.6 -246.5L113.8 -235.1L106.9 -230.1L98.8 -241.6ZM1393.3 949.2L1380.0 944.7L1377.1 953.3L1390.4 957.8L1393.3 949.2ZM133.1 -281.5L130.1 -279.2L133.0 -275.4L136.0 -277.7L133.1 -281.5ZM127.0 -289.0L125.5 -287.8L127.2 -285.6L128.8 -286.8L127.0 -289.0Z" fill="#C8AE8A" stroke="#b39b78" stroke-width=".8"></path>
<path d="M242.9 -59.8L233.4 -54.5L229.7 -52.7M20.7 768.2L20.9 753.1L16.1 684.7M877.9 833.4L905.3 905.4L911.8 908.4L916.5 907.9L924.8 905.1M551.5 375.2L546.9 379.5L537.7 389.7L527.3 401.0L514.1 409.5L503.6 413.2L484.9 419.0L430.1 457.2L343.7 524.8L333.2 530.3L294.5 538.9L267.1 542.5L206.2 555.4L166.7 554.7L158.2 554.5L69.3 533.7M1513.6 -241.8L1496.8 -202.3L1485.4 -197.9L1444.9 -205.6L1365.5 -247.1L1221.9 -332.7L1153.0 -354.6M856.4 -133.0L958.5 -151.9L1009.7 -166.4L1048.1 -193.3L1080.9 -220.2L1086.2 -238.6L1090.4 -250.3L1097.9 -253.4L1114.0 -246.7L1121.8 -247.0L1125.2 -253.7L1124.3 -266.0L1123.0 -290.3L1126.0 -302.4L1140.4 -323.4L1153.0 -354.6L1135.8 -454.5L1129.6 -510.7L1129.7 -515.6M1233.1 2174.3L1221.8 1870.8L1219.4 1821.1L1166.8 1685.5L1096.8 1516.0L1028.7 1337.5L1025.3 1327.1L1020.6 1312.3L1014.8 1274.6L1003.6 1168.2M53.2 -286.2L80.8 -306.8L83.6 -307.8L87.1 -308.2M1126.7 814.3L1075.6 813.7L1061.7 814.5M1073.8 789.1L1075.6 813.7L1081.1 869.4L1078.0 876.6M-65.9 -30.8L-139.4 -49.9L-168.8 -54.1L-181.6 -54.7L-205.2 -48.8L-332.8 -45.8M1718.2 1090.5L1700.3 1100.5L1693.4 1101.5L1678.9 1103.4L1428.7 1163.6L1370.0 1163.9L1271.4 1178.9L1211.8 1206.6M966.2 390.5L1052.7 390.5L1159.7 325.4L1201.0 318.1L1242.5 324.4L1558.3 461.1L2087.3 728.3L2105.0 733.2M1260.5 1084.1L1264.1 1163.2L1271.4 1178.9M905.3 905.4L893.2 908.2L856.7 923.6L818.0 939.7L800.5 940.7L787.1 938.2L774.0 934.4L763.6 926.8L756.7 918.8L751.3 911.5L745.3 907.8L738.6 905.7L728.7 905.3L718.3 902.6L706.9 896.5L696.7 886.5L686.1 879.3L667.0 873.9L642.1 874.8L628.6 883.6L616.3 903.1L604.2 911.0L579.7 909.2L458.1 875.3L398.9 850.1L320.9 830.7L297.7 820.5L195.5 773.8L171.5 768.0L20.7 768.2L-61.8 768.8L-91.3 763.7L-252.5 741.5L-304.9 739.8L-320.5 658.9L-325.6 641.2L-383.0 619.7L-420.8 594.4L-433.3 566.6L-436.9 529.7L-478.9 504.6M1024.4 897.9L1018.8 909.8L1003.3 916.0M166.7 554.7L166.6 566.0L171.5 768.0M-263.2 452.0L-170.9 440.7L-153.7 430.7M267.1 542.5L279.7 613.4L297.7 820.5M-91.3 763.7L-97.9 745.1L-122.5 478.6L-124.6 446.8L-126.6 385.0L-132.2 308.9M87.1 -308.2L92.2 -301.6L93.3 -296.3L98.9 -288.8L104.5 -283.4L107.8 -281.5L110.8 -281.5L116.3 -285.4L117.7 -287.9L117.7 -290.5L116.5 -293.3L113.4 -297.5L104.1 -307.1L89.8 -314.1M12.7 -526.9L26.6 -483.8L50.9 -453.5L95.5 -396.4L102.8 -390.2L116.9 -380.2L161.3 -341.4L279.9 -195.2L279.2 -167.0L296.5 -128.2L373.0 -26.9L483.1 116.6M89.8 -314.1L83.9 -316.1L78.8 -315.7L72.5 -313.2L46.9 -294.5M1259.9 966.4L1254.9 965.3L1250.5 963.6L1246.2 959.5M969.8 825.3L968.6 828.9L965.3 837.9M1329.4 969.3L1323.2 985.0M1350.5 976.8L1329.4 969.3L1323.1 963.2L1324.8 958.5M1329.0 995.6L1343.0 1000.5L1346.9 995.3L1349.8 987.0L1350.5 976.8M444.5 -94.9L449.2 -71.0M167.0 -45.0L174.0 -16.9L179.0 -10.5L197.9 15.5L206.5 15.3L225.4 2.0L245.6 1.4L326.8 106.8M-126.6 385.0L-54.4 373.6M-44.3 509.8L-124.6 446.8L-153.7 430.7L-281.0 365.9M85.5 -88.0L80.3 -86.7L76.6 -84.9L73.7 -81.8L73.8 -79.2L74.6 -59.8M529.8 346.4L535.1 342.2L540.2 338.7L573.5 315.5L574.9 313.4L575.0 311.4L574.5 309.1L519.8 239.4M1130.5 653.8L1140.4 653.5L1154.8 653.3L1167.5 654.8M-22.1 126.8L-19.8 126.9L17.7 124.3M-116.3 184.5L-113.8 181.7L-109.9 180.3L-18.4 175.4M1075.4 1015.5L1094.6 1015.6L1105.9 1018.0M63.4 -272.5L68.9 -277.0L71.5 -278.5L76.7 -276.4L88.5 -262.8L91.4 -258.2M1128.2 751.7L1135.2 750.0L1140.1 745.3L1144.4 744.8L1147.0 744.2L1149.1 744.2M1133.3 537.1L1125.8 535.1L1121.2 534.1L1114.5 533.3L1111.7 532.6L1108.3 530.9M1223.7 924.9L1221.1 932.6L1214.1 953.4L1214.0 956.4L1217.1 976.3M65.5 -269.6L47.3 -252.0M30.2 -316.3L24.5 -301.6L10.5 -291.8M483.1 116.6L494.6 124.1L512.9 141.2L558.9 184.0L588.7 211.4L601.6 226.0L672.3 274.2L700.5 292.5L785.0 329.1" fill="none" stroke="#C8AE8A" stroke-width="5" stroke-linecap="round" stroke-linejoin="round"></path>
<path d="M141.5 -167.9L145.5 -171.1M89.0 -39.6L85.5 -88.0L83.6 -113.6L83.2 -120.1L78.4 -200.1L93.1 -207.7L105.1 -216.3M1324.8 958.5L1326.5 953.7L1350.5 904.1L1404.0 789.5L1471.0 646.7M145.4 -42.8L145.9 -80.9L173.8 -102.0M1124.0 891.8L1125.8 885.6L1126.7 814.3L1128.2 751.7L1130.5 653.8L1133.3 537.1L1133.9 510.6M1262.3 937.6L1259.9 966.4L1260.6 1024.8L1260.5 1084.1M1260.5 1084.1L992.2 1084.9M885.0 801.6L883.5 806.3L882.4 810.1L885.7 822.9L924.8 905.1L929.0 914.4L989.6 1055.3L992.2 1084.9L1003.6 1168.2M1350.5 904.1L1396.9 920.9L1416.6 879.8M1260.6 1024.8L1105.9 1018.0L1100.2 948.4M929.0 914.4L960.5 901.2L977.5 897.9L1001.9 889.0L1020.7 894.5L1024.4 897.9L1055.9 908.6M16.1 684.7L4.3 508.3L-2.0 435.5L-18.4 175.4L-18.5 173.1L-22.1 126.8L-34.1 -29.1M210.8 -49.4L206.2 -58.8L173.8 -102.0L150.1 -132.1L93.1 -207.7M83.6 -113.6L125.2 -116.6L150.1 -132.1L163.7 -139.3M229.7 -52.7L210.8 -49.4L167.0 -45.0L145.4 -42.8L89.0 -39.6M145.5 -171.1L174.8 -193.8L116.6 -269.6L112.7 -275.7L110.8 -281.5M89.0 -39.6L46.7 -36.0L-34.1 -29.1M69.3 533.7L30.1 507.2L4.3 508.3L-44.3 509.8M46.7 -36.0L45.6 -59.8L44.0 -83.6L42.5 -106.2L41.8 -116.3L40.0 -141.5L36.3 -195.9M41.8 -116.3L83.2 -120.1M-34.1 -29.1L-48.0 -199.2L-61.3 -365.0L-61.2 -390.6L-57.5 -398.1L-37.4 -409.1M78.4 -200.1L36.3 -195.9M-34.1 -29.1L-65.9 -30.8" fill="none" stroke="#C8AE8A" stroke-width="12" stroke-linecap="round" stroke-linejoin="round"></path>
<path d="" fill="none" stroke="#b39b78" stroke-width="15" stroke-linecap="round" stroke-linejoin="round"></path>
<path d="M242.4 -36.8L229.7 -52.7L209.3 -79.6M141.5 -167.9L105.1 -216.3L80.8 -249.1L75.0 -256.7M877.6 795.8L865.7 786.5L848.6 766.3M1342.5 964.4L1324.8 958.5L1262.3 937.6L1223.7 924.9L1124.0 891.8L1078.0 876.6L965.3 837.9L946.9 831.7L914.0 818.3L891.1 805.2L885.0 801.6M53.2 -286.2L46.9 -294.5M807.7 713.5L551.5 375.2L550.1 373.4L529.8 346.4L289.4 27.6L242.4 -36.8M848.6 766.3L828.4 740.2M46.9 -294.5L39.7 -304.5L30.2 -316.3M184.4 -111.1L163.7 -139.3L141.5 -167.9M209.3 -79.6L193.7 -99.0L184.4 -111.1M1383.2 977.3L1363.1 970.4L1342.5 964.4M828.4 740.2L807.7 713.5M885.0 801.6L877.6 795.8M75.0 -256.7L65.5 -269.6L63.4 -272.5L53.2 -286.2" fill="none" stroke="#b39b78" stroke-width="22" stroke-linecap="round" stroke-linejoin="round"></path>
<path d="M242.9 -59.8L233.4 -54.5L229.7 -52.7M20.7 768.2L20.9 753.1L16.1 684.7M877.9 833.4L905.3 905.4L911.8 908.4L916.5 907.9L924.8 905.1M551.5 375.2L546.9 379.5L537.7 389.7L527.3 401.0L514.1 409.5L503.6 413.2L484.9 419.0L430.1 457.2L343.7 524.8L333.2 530.3L294.5 538.9L267.1 542.5L206.2 555.4L166.7 554.7L158.2 554.5L69.3 533.7M1513.6 -241.8L1496.8 -202.3L1485.4 -197.9L1444.9 -205.6L1365.5 -247.1L1221.9 -332.7L1153.0 -354.6M856.4 -133.0L958.5 -151.9L1009.7 -166.4L1048.1 -193.3L1080.9 -220.2L1086.2 -238.6L1090.4 -250.3L1097.9 -253.4L1114.0 -246.7L1121.8 -247.0L1125.2 -253.7L1124.3 -266.0L1123.0 -290.3L1126.0 -302.4L1140.4 -323.4L1153.0 -354.6L1135.8 -454.5L1129.6 -510.7L1129.7 -515.6M1233.1 2174.3L1221.8 1870.8L1219.4 1821.1L1166.8 1685.5L1096.8 1516.0L1028.7 1337.5L1025.3 1327.1L1020.6 1312.3L1014.8 1274.6L1003.6 1168.2M53.2 -286.2L80.8 -306.8L83.6 -307.8L87.1 -308.2M1126.7 814.3L1075.6 813.7L1061.7 814.5M1073.8 789.1L1075.6 813.7L1081.1 869.4L1078.0 876.6M-65.9 -30.8L-139.4 -49.9L-168.8 -54.1L-181.6 -54.7L-205.2 -48.8L-332.8 -45.8M1718.2 1090.5L1700.3 1100.5L1693.4 1101.5L1678.9 1103.4L1428.7 1163.6L1370.0 1163.9L1271.4 1178.9L1211.8 1206.6M966.2 390.5L1052.7 390.5L1159.7 325.4L1201.0 318.1L1242.5 324.4L1558.3 461.1L2087.3 728.3L2105.0 733.2M1260.5 1084.1L1264.1 1163.2L1271.4 1178.9M905.3 905.4L893.2 908.2L856.7 923.6L818.0 939.7L800.5 940.7L787.1 938.2L774.0 934.4L763.6 926.8L756.7 918.8L751.3 911.5L745.3 907.8L738.6 905.7L728.7 905.3L718.3 902.6L706.9 896.5L696.7 886.5L686.1 879.3L667.0 873.9L642.1 874.8L628.6 883.6L616.3 903.1L604.2 911.0L579.7 909.2L458.1 875.3L398.9 850.1L320.9 830.7L297.7 820.5L195.5 773.8L171.5 768.0L20.7 768.2L-61.8 768.8L-91.3 763.7L-252.5 741.5L-304.9 739.8L-320.5 658.9L-325.6 641.2L-383.0 619.7L-420.8 594.4L-433.3 566.6L-436.9 529.7L-478.9 504.6M1024.4 897.9L1018.8 909.8L1003.3 916.0M166.7 554.7L166.6 566.0L171.5 768.0M-263.2 452.0L-170.9 440.7L-153.7 430.7M267.1 542.5L279.7 613.4L297.7 820.5M-91.3 763.7L-97.9 745.1L-122.5 478.6L-124.6 446.8L-126.6 385.0L-132.2 308.9M87.1 -308.2L92.2 -301.6L93.3 -296.3L98.9 -288.8L104.5 -283.4L107.8 -281.5L110.8 -281.5L116.3 -285.4L117.7 -287.9L117.7 -290.5L116.5 -293.3L113.4 -297.5L104.1 -307.1L89.8 -314.1M12.7 -526.9L26.6 -483.8L50.9 -453.5L95.5 -396.4L102.8 -390.2L116.9 -380.2L161.3 -341.4L279.9 -195.2L279.2 -167.0L296.5 -128.2L373.0 -26.9L483.1 116.6M89.8 -314.1L83.9 -316.1L78.8 -315.7L72.5 -313.2L46.9 -294.5M1259.9 966.4L1254.9 965.3L1250.5 963.6L1246.2 959.5M969.8 825.3L968.6 828.9L965.3 837.9M1329.4 969.3L1323.2 985.0M1350.5 976.8L1329.4 969.3L1323.1 963.2L1324.8 958.5M1329.0 995.6L1343.0 1000.5L1346.9 995.3L1349.8 987.0L1350.5 976.8M444.5 -94.9L449.2 -71.0M167.0 -45.0L174.0 -16.9L179.0 -10.5L197.9 15.5L206.5 15.3L225.4 2.0L245.6 1.4L326.8 106.8M-126.6 385.0L-54.4 373.6M-44.3 509.8L-124.6 446.8L-153.7 430.7L-281.0 365.9M85.5 -88.0L80.3 -86.7L76.6 -84.9L73.7 -81.8L73.8 -79.2L74.6 -59.8M529.8 346.4L535.1 342.2L540.2 338.7L573.5 315.5L574.9 313.4L575.0 311.4L574.5 309.1L519.8 239.4M1130.5 653.8L1140.4 653.5L1154.8 653.3L1167.5 654.8M-22.1 126.8L-19.8 126.9L17.7 124.3M-116.3 184.5L-113.8 181.7L-109.9 180.3L-18.4 175.4M1075.4 1015.5L1094.6 1015.6L1105.9 1018.0M63.4 -272.5L68.9 -277.0L71.5 -278.5L76.7 -276.4L88.5 -262.8L91.4 -258.2M1128.2 751.7L1135.2 750.0L1140.1 745.3L1144.4 744.8L1147.0 744.2L1149.1 744.2M1133.3 537.1L1125.8 535.1L1121.2 534.1L1114.5 533.3L1111.7 532.6L1108.3 530.9M1223.7 924.9L1221.1 932.6L1214.1 953.4L1214.0 956.4L1217.1 976.3M65.5 -269.6L47.3 -252.0M30.2 -316.3L24.5 -301.6L10.5 -291.8M483.1 116.6L494.6 124.1L512.9 141.2L558.9 184.0L588.7 211.4L601.6 226.0L672.3 274.2L700.5 292.5L785.0 329.1" fill="none" stroke="#FBF8F1" stroke-width="3" stroke-linecap="round" stroke-linejoin="round"></path>
<path d="M141.5 -167.9L145.5 -171.1M89.0 -39.6L85.5 -88.0L83.6 -113.6L83.2 -120.1L78.4 -200.1L93.1 -207.7L105.1 -216.3M1324.8 958.5L1326.5 953.7L1350.5 904.1L1404.0 789.5L1471.0 646.7M145.4 -42.8L145.9 -80.9L173.8 -102.0M1124.0 891.8L1125.8 885.6L1126.7 814.3L1128.2 751.7L1130.5 653.8L1133.3 537.1L1133.9 510.6M1262.3 937.6L1259.9 966.4L1260.6 1024.8L1260.5 1084.1M1260.5 1084.1L992.2 1084.9M885.0 801.6L883.5 806.3L882.4 810.1L885.7 822.9L924.8 905.1L929.0 914.4L989.6 1055.3L992.2 1084.9L1003.6 1168.2M1350.5 904.1L1396.9 920.9L1416.6 879.8M1260.6 1024.8L1105.9 1018.0L1100.2 948.4M929.0 914.4L960.5 901.2L977.5 897.9L1001.9 889.0L1020.7 894.5L1024.4 897.9L1055.9 908.6M16.1 684.7L4.3 508.3L-2.0 435.5L-18.4 175.4L-18.5 173.1L-22.1 126.8L-34.1 -29.1M210.8 -49.4L206.2 -58.8L173.8 -102.0L150.1 -132.1L93.1 -207.7M83.6 -113.6L125.2 -116.6L150.1 -132.1L163.7 -139.3M229.7 -52.7L210.8 -49.4L167.0 -45.0L145.4 -42.8L89.0 -39.6M145.5 -171.1L174.8 -193.8L116.6 -269.6L112.7 -275.7L110.8 -281.5M89.0 -39.6L46.7 -36.0L-34.1 -29.1M69.3 533.7L30.1 507.2L4.3 508.3L-44.3 509.8M46.7 -36.0L45.6 -59.8L44.0 -83.6L42.5 -106.2L41.8 -116.3L40.0 -141.5L36.3 -195.9M41.8 -116.3L83.2 -120.1M-34.1 -29.1L-48.0 -199.2L-61.3 -365.0L-61.2 -390.6L-57.5 -398.1L-37.4 -409.1M78.4 -200.1L36.3 -195.9M-34.1 -29.1L-65.9 -30.8" fill="none" stroke="#FBF8F1" stroke-width="9" stroke-linecap="round" stroke-linejoin="round"></path>
<path d="" fill="none" stroke="#FBF8F1" stroke-width="11" stroke-linecap="round" stroke-linejoin="round"></path>
<path d="M242.4 -36.8L229.7 -52.7L209.3 -79.6M141.5 -167.9L105.1 -216.3L80.8 -249.1L75.0 -256.7M877.6 795.8L865.7 786.5L848.6 766.3M1342.5 964.4L1324.8 958.5L1262.3 937.6L1223.7 924.9L1124.0 891.8L1078.0 876.6L965.3 837.9L946.9 831.7L914.0 818.3L891.1 805.2L885.0 801.6M53.2 -286.2L46.9 -294.5M807.7 713.5L551.5 375.2L550.1 373.4L529.8 346.4L289.4 27.6L242.4 -36.8M848.6 766.3L828.4 740.2M46.9 -294.5L39.7 -304.5L30.2 -316.3M184.4 -111.1L163.7 -139.3L141.5 -167.9M209.3 -79.6L193.7 -99.0L184.4 -111.1M1383.2 977.3L1363.1 970.4L1342.5 964.4M828.4 740.2L807.7 713.5M885.0 801.6L877.6 795.8M75.0 -256.7L65.5 -269.6L63.4 -272.5L53.2 -286.2" fill="none" stroke="#FBF8F1" stroke-width="17" stroke-linecap="round" stroke-linejoin="round"></path>
<path d="M427.2 85.3L415.4 69.7L361.4 -1.8L315.7 -62.2L315.2 -62.8M315.2 -62.8L304.4 -76.2L294.2 -87.3L278.4 -104.0L268.4 -115.4L227.9 -168.7L195.7 -211.3L165.7 -250.9L148.3 -274.0L135.3 -291.3M7889.8 6299.6L7886.2 6295.6L7875.3 6283.4L7857.8 6263.9L7842.4 6246.8L7830.1 6233.2L7803.2 6203.5L7633.1 6015.8L7514.5 5882.9L7442.3 5800.6L7366.7 5717.5L7275.5 5620.1L7039.0 5358.3L7037.9 5357.0L6911.9 5217.6L6685.2 4966.9L6347.5 4593.2L6333.2 4577.4L6317.8 4560.6L6304.5 4545.9L6290.9 4530.9L6057.8 4272.6L5922.1 4122.6L5844.3 4037.0L5810.1 3999.1L5696.9 3874.0L5537.8 3698.2L5275.7 3408.5L5119.0 3235.3L5061.8 3172.7L5009.8 3118.5L4978.5 3088.9L4928.6 3043.7L4922.3 3037.9L4914.7 3031.1L4612.0 2764.4L4600.0 2753.7L4597.2 2751.2L4582.5 2738.2L4567.4 2724.7L4496.2 2661.9L4175.2 2378.7L4157.9 2363.4L4141.4 2348.8L4079.9 2294.1L3859.6 2100.1L3720.1 1977.1L3542.3 1820.2L3538.8 1817.2L3458.5 1746.2L3221.6 1537.1L3203.6 1521.7L3189.2 1508.6L3173.4 1495.1L3113.3 1443.1L3075.2 1413.7L3020.3 1376.9L2974.8 1350.8L2926.9 1326.4L2619.1 1182.7L2611.4 1179.1L2605.3 1176.5L2600.6 1174.3L2588.8 1168.7L2395.6 1078.4L1792.2 796.7L1477.5 649.8L1471.0 646.7L1465.1 644.1L1463.4 643.3L1390.6 609.4L1310.0 571.6L1229.8 534.1L1213.8 526.7L1149.4 496.6L1069.0 459.0L988.3 421.4L987.9 421.2M315.2 -62.8L307.7 -72.7L253.9 -144.2L200.5 -214.9L172.3 -252.1L146.8 -285.8L141.2 -293.4L93.1 -356.9L39.2 -428.3L26.0 -445.7L18.4 -455.8L18.3 -456.0L18.1 -456.2M515.5 192.0L492.3 162.4L485.3 150.8L479.9 141.2M446.9 97.0L477.1 137.6L479.9 141.2L491.3 156.1L519.4 191.3L526.9 200.7L537.8 213.4L567.9 242.9L584.9 257.7L605.8 273.4L632.7 289.6L653.4 301.4L674.8 312.1L697.4 321.9L721.6 331.1L742.9 337.6L766.3 343.5L789.4 347.7L814.0 351.6L848.6 353.7L874.2 354.3L900.7 352.6L924.4 350.2L949.0 345.2L971.9 340.4L995.5 333.7L1038.8 317.1L1081.6 294.8L1833.1 -91.4L2205.7 -286.2L2588.8 -480.4L2777.7 -579.6M987.9 421.2L987.4 421.0L960.7 408.6L930.6 395.9L907.0 387.4L864.6 375.7L846.5 371.9L820.6 366.8L807.2 364.4L781.7 359.1L747.7 350.8L733.9 346.8L718.3 342.1L680.6 326.9L651.9 312.2L617.9 291.3L614.3 289.1L579.3 262.3L578.5 261.6L577.9 261.1L551.4 237.7L532.7 218.9L515.2 199.9L488.8 167.0L460.5 129.6L449.8 115.2L427.2 85.3" fill="none" stroke="#6b5a43" stroke-width="3"></path><path d="M427.2 85.3L415.4 69.7L361.4 -1.8L315.7 -62.2L315.2 -62.8M315.2 -62.8L304.4 -76.2L294.2 -87.3L278.4 -104.0L268.4 -115.4L227.9 -168.7L195.7 -211.3L165.7 -250.9L148.3 -274.0L135.3 -291.3M7889.8 6299.6L7886.2 6295.6L7875.3 6283.4L7857.8 6263.9L7842.4 6246.8L7830.1 6233.2L7803.2 6203.5L7633.1 6015.8L7514.5 5882.9L7442.3 5800.6L7366.7 5717.5L7275.5 5620.1L7039.0 5358.3L7037.9 5357.0L6911.9 5217.6L6685.2 4966.9L6347.5 4593.2L6333.2 4577.4L6317.8 4560.6L6304.5 4545.9L6290.9 4530.9L6057.8 4272.6L5922.1 4122.6L5844.3 4037.0L5810.1 3999.1L5696.9 3874.0L5537.8 3698.2L5275.7 3408.5L5119.0 3235.3L5061.8 3172.7L5009.8 3118.5L4978.5 3088.9L4928.6 3043.7L4922.3 3037.9L4914.7 3031.1L4612.0 2764.4L4600.0 2753.7L4597.2 2751.2L4582.5 2738.2L4567.4 2724.7L4496.2 2661.9L4175.2 2378.7L4157.9 2363.4L4141.4 2348.8L4079.9 2294.1L3859.6 2100.1L3720.1 1977.1L3542.3 1820.2L3538.8 1817.2L3458.5 1746.2L3221.6 1537.1L3203.6 1521.7L3189.2 1508.6L3173.4 1495.1L3113.3 1443.1L3075.2 1413.7L3020.3 1376.9L2974.8 1350.8L2926.9 1326.4L2619.1 1182.7L2611.4 1179.1L2605.3 1176.5L2600.6 1174.3L2588.8 1168.7L2395.6 1078.4L1792.2 796.7L1477.5 649.8L1471.0 646.7L1465.1 644.1L1463.4 643.3L1390.6 609.4L1310.0 571.6L1229.8 534.1L1213.8 526.7L1149.4 496.6L1069.0 459.0L988.3 421.4L987.9 421.2M315.2 -62.8L307.7 -72.7L253.9 -144.2L200.5 -214.9L172.3 -252.1L146.8 -285.8L141.2 -293.4L93.1 -356.9L39.2 -428.3L26.0 -445.7L18.4 -455.8L18.3 -456.0L18.1 -456.2M515.5 192.0L492.3 162.4L485.3 150.8L479.9 141.2M446.9 97.0L477.1 137.6L479.9 141.2L491.3 156.1L519.4 191.3L526.9 200.7L537.8 213.4L567.9 242.9L584.9 257.7L605.8 273.4L632.7 289.6L653.4 301.4L674.8 312.1L697.4 321.9L721.6 331.1L742.9 337.6L766.3 343.5L789.4 347.7L814.0 351.6L848.6 353.7L874.2 354.3L900.7 352.6L924.4 350.2L949.0 345.2L971.9 340.4L995.5 333.7L1038.8 317.1L1081.6 294.8L1833.1 -91.4L2205.7 -286.2L2588.8 -480.4L2777.7 -579.6M987.9 421.2L987.4 421.0L960.7 408.6L930.6 395.9L907.0 387.4L864.6 375.7L846.5 371.9L820.6 366.8L807.2 364.4L781.7 359.1L747.7 350.8L733.9 346.8L718.3 342.1L680.6 326.9L651.9 312.2L617.9 291.3L614.3 289.1L579.3 262.3L578.5 261.6L577.9 261.1L551.4 237.7L532.7 218.9L515.2 199.9L488.8 167.0L460.5 129.6L449.8 115.2L427.2 85.3" fill="none" stroke="#EFE6D2" stroke-width="1.6" stroke-dasharray="8 8"></path>
<text x="822.0" y="658.1" text-anchor="middle" font-size="20" fill="#1E1B17" transform="rotate(51.5 822.0 658.1)" paint-order="stroke" stroke="#EFE6D2" stroke-width="0" stroke-linejoin="round">Berliner Chaussee</text>
<text x="180.0" y="63.4" text-anchor="middle" font-size="22" fill="#1E1B17" font-weight="700" paint-order="stroke" stroke="#EFE6D2" stroke-width="4" stroke-linejoin="round">Kremmen ↖</text>
<text x="1020.0" y="826.6" text-anchor="middle" font-size="22" fill="#1E1B17" font-weight="700" paint-order="stroke" stroke="#EFE6D2" stroke-width="4" stroke-linejoin="round">Schwante ↘</text>
<text x="1020.0" y="608.6" text-anchor="middle" font-size="20" fill="#7A2E25" letter-spacing="4" paint-order="stroke" stroke="#EFE6D2" stroke-width="4" stroke-linejoin="round">AMALIENFELDE</text>
<text x="282.0" y="727.5" text-anchor="middle" font-size="18" fill="#5E6552" font-style="italic" paint-order="stroke" stroke="#EFE6D2" stroke-width="4" stroke-linejoin="round">Kremmener Sandberge</text>
<g transform="translate(469.8 407.5) scale(1.25)"><ellipse cx="0" cy="2" rx="10" ry="4" fill="#1E1B17" fill-opacity=".25"></ellipse><path d="M0 0C-4-10-16-18-16-30a16 16 0 0 1 32 0C16-18 4-10 0 0Z" fill="#7A2E25" stroke="#EFE6D2" stroke-width="3"></path><circle cx="0" cy="-30" r="6" fill="#EFE6D2"></circle></g>
<g transform="translate(433.8 337.5)"><rect x="-236" y="-26" width="236" height="52" rx="3" fill="#5E6552"></rect><text x="-218" y="-3" font-size="19" fill="#EFE6D2">Feldküche Robse King</text><text x="-218" y="17" font-family="Arial,Helvetica,sans-serif" font-size="13" fill="#E2D3B3">Berliner Chaussee 18a</text></g>
<g font-family="Arial,Helvetica,sans-serif" font-size="12" fill="#5a5044"><rect x="986" y="876" width="214" height="24" fill="#EFE6D2" fill-opacity=".85"></rect><text x="1190" y="892" text-anchor="end">Kartendaten © OpenStreetMap-Mitwirkende</text></g>
<g transform="translate(24 872)" font-family="Arial,Helvetica,sans-serif" font-size="12" fill="#5a5044"><path d="M0 0h178.1" stroke="#5a5044" stroke-width="2"></path><path d="M0 -5v10M178.1 -5v10" stroke="#5a5044" stroke-width="2"></path><text x="186.1" y="4">200 m</text></g>
<g transform="translate(1166 40)" font-family="Arial,Helvetica,sans-serif"><path d="M0-18L8 8 0 3-8 8Z" fill="#1E1B17"></path><text y="24" text-anchor="middle" font-size="13" font-weight="700" fill="#1E1B17">N</text></g>
</svg>